<mxfile host="app.diagrams.net" agent="Mozilla/5.0 (Windows NT 10.0; Win64; x64) AppleWebKit/537.36 (KHTML, like Gecko) Chrome/131.0.0.0 Safari/537.36" version="24.8.9">
  <diagram name="Page-1" id="nDmrEylExSndNjTN7x1H">
    <mxGraphModel dx="6717" dy="4220" grid="1" gridSize="10" guides="1" tooltips="1" connect="1" arrows="1" fold="1" page="1" pageScale="1" pageWidth="850" pageHeight="1100" math="0" shadow="0">
      <root>
        <mxCell id="0" />
        <mxCell id="1" parent="0" />
        <mxCell id="juRgAYWE1Qn_RtXxcc75-64" value="" style="rounded=0;whiteSpace=wrap;html=1;fillColor=#f5f5f5;fontColor=#333333;strokeColor=#666666;" vertex="1" parent="1">
          <mxGeometry x="-20" y="-260" width="2160" height="1720" as="geometry" />
        </mxCell>
        <mxCell id="juRgAYWE1Qn_RtXxcc75-1" value="" style="rounded=0;whiteSpace=wrap;html=1;" vertex="1" parent="1">
          <mxGeometry x="160" width="800" height="330" as="geometry" />
        </mxCell>
        <mxCell id="juRgAYWE1Qn_RtXxcc75-2" value="" style="shape=image;imageAspect=0;aspect=fixed;verticalLabelPosition=bottom;verticalAlign=top;image=https://encrypted-tbn0.gstatic.com/images?q=tbn:ANd9GcQs6rgvTTCxPIfIVdS_tOotuWuPNBZELBo3mQ&amp;s;" vertex="1" parent="1">
          <mxGeometry x="180" y="63" width="225" height="225" as="geometry" />
        </mxCell>
        <mxCell id="juRgAYWE1Qn_RtXxcc75-3" value="" style="shape=image;imageAspect=0;aspect=fixed;verticalLabelPosition=bottom;verticalAlign=top;image=data:image/jpeg,/9j/4AAQSkZJRgABAQAAAQABAAD/2wCEAAkGBw0PDQ0NDg4QDhANEBUQDw4OEBgQFg4RFhcWFxcRFhcYHSggGBolHBUWITEhJysrLi4wGCAzODMtNygtLi4BCgoKDg0OGhAQGzciHSAtKzExLjItLS0tLS0rNystNy0tLSstLS0tLS03KzI3NS0tKy0tLS0tLy8tLS0tLS0tLf/AABEIAN8A4gMBEQACEQEDEQH/xAAbAAEAAgMBAQAAAAAAAAAAAAAAAQYCBQcEA//EAEcQAAEDAgMCBwwIBAUFAAAAAAEAAgMEEQUGIRIxExRBUVNxgQcWIjI1YZGSsrPR0hUjNEJSgpOhJDNUchclQ3ODNkR0wcL/xAAaAQEAAwEBAQAAAAAAAAAAAAAAAQQFBgMC/8QANREBAAECAgYIBgIDAQEBAAAAAAECAwQFETE0UbHREhMVQXGBkaEhUmHB4fAkMhQzQqJDI//aAAwDAQACEQMRAD8A7igICAgICAgICAgICAgICAgICAgICAgICAgICAgICAgICAgICAgICAgICAgICAgICAgICAgICAgICAgICAgICAgICAgICAgICAgICAgICAgICAgICAgICAgICAgICDQ4nmump53wPjmc6O1yxrSDdodpdwO4rPv5las3JoqidMeHNfs5dcu0RXTMaJ8eTy9/FJ0VR6rPnXj2xY3T7c3r2Te3x78k9+9J0VR6rPnTtixun25nZN7fHvyT370nRVHqs+dO2bG6fSOZ2Te3x78jv2pOin9VnzqO2rG6fSOZ2Te3x78k9+tJ0U/qs+dO2rG6fSOZ2Te3x78jv0pejn9VnzqO2rG6fSOZ2Te3x78k9+dL0c/qs+dO27G6fSOZ2Te3x78jvzpejn9Vnzp23h90+kczsm9vj35J78qXo5/VZ86jtvD7p9I5o7Kvb49+Se/Gl6Of1WfOnbmH3T6RzT2Te3x78jvwpejn9VnzqO3MPun0jmdk3t8e/JPfhS9HN6rPmTt3D7qvSOZ2Te3x78jvvpujm9VvzJ27h91XpHNHZN7fHvyT33U3Rzeq35lHb2H3Vekc09k3t8e/I77abo5vVb8ydvYfdV6RzOyb2+Pfknvspujm9VvzJ29hvlq9I5o7Kvb49+T04fmCGeVsTGSBzr2Lg0DQX5HFe+FzaziLkW6InTO/RzeV/L7lmia6pjRHjybZaiiICAgICAgICAgIOX5x8o1P5PdsXK5ltNflwh0+X7NT58ZacFUFxkCgyC+RKgSCvkZBBIUDIFQJCgSCoGS+RIUCQVAyCgSoGQKgbfK32yPqd7JWrku10+E8FHMdnq8uK9rtHNCAgICAgICAgICDl+cvKNT/AMfu2Llsx2mvy4Q6fL9mp8+MtMqC4kFQMgUGQXyJUCQV8jIIJCgZAqBIUCQVAyXyJCgSCoGQUCVA3GVftkXU72StTJtrp8J4KOY7PV5cV8XaOaEBAQEBAQEBAQEHLs5eUqn/AI/dsXLZjtNflwh0+X7NT58ZaYKiuJUCQVAyJ0USLxX0GEUrYRPC8mRtwQ55va1ybO03roL2HwNiKesp1/WebDtXsZemroVavDk8nD4D0Mnpk+ZV+llnyz/65vboZh80e3JPD4F0Mnpk+ZR0sr+Wf/XM6GYfNHtySJ8C6KQdsnzJ0sr+Wf8A1zOjmHzR7cnizRhTKaVjohaKVt2al1iN4uew9qq5lhKbFcTR/WpYwOJm9RMV/wBoaYFZi8kKBIKgZL5EhQJBUDIKBuMqfbYup3slamTbXT4TwUcx2ery4r6uzc0ICAgICAgICAgIOWZz8pVPXH7pi5fMNpr8uEOny/ZqfPjLThUlxIXyJUCSdColK35+/wCy/sf/APC2c4/+fhP2Y+Vf/Txj7qoFiNdKgSCvkXDDv47DX051mpbbHOQL7PpF2resfzMHNuf7UavtyY97+Liouf8ANWv781SWA2GQKgSFAkFQMl8iQoEgqBucqfbYup/slamTbXT4TwUcx2ery4r8uyc0ICAgICAgICAgIOV508pVP/H7pi5jMNpq8uEOny/ZqfPjLTAqkuMgoEhQB3FfMpheM7Uc0vE+Cikk2WP2thhda+xa9upbmaWrlzodCmZ+E6o8GJlt2ijp9KYj4xr81Z+iKz+ln/Sd8Fk/4l/5J9Jaf+TZ+ePWHwqKaWIhssb4yRcB7S0kc+q8a7ddE6K40eL0ouU1xppnS+a8322uW8R4vVMeTZj/AAJP7Ty9hsfSreAxHUXomdU/Cf36KuMsddamI1x8YenNuH8BVFzR9XP9Y3zO+8PTr2r0zTD9Vf0xqq+PP9+rzy+/1lrROun4cmlCzV5kCoEhQJBUDJfIkKBucp/bYup/slaeTbVT4TwUcx2ery4r+uyc0ICAgICAgICAgIOVZ08pVXXH7pi5nMNoq8uEOny/ZqfPjLTKkuJBUDIKBK+Rvo8217WhvCNOyLXMYvpzq/GZ4iI0aY9FGcusTOnR7s+/Cv8Axs/TCntXEb49Edm4fd7triR+kMMbUgAzU1+EAG+3j+kWd2K1f/mYSLsf2p1/fmq2f4uKm3/zVq+3JTgVgtlkomBcIv4/Cy3fPSbud2yNPS3TrC3af5mC0f8AdH25x7sar+Li9P8AzX++0+ypArn2ykIMgVAkKBIKgZL5G5yl9ti6n+yVp5PtVPhPBRzHZ6vLi6Auxc0ICAgICAgICAgIOU518p1XXH7pi5nMNoq8uEOny/ZqfPjLSgqmuMlAkFQMgoEhQJuvmRYslYkIqngXn6upGwQdwf8AdPbcjtC0csv9Xd6E6quLPzGx07XTjXTweHHsPNNUyRfdvtRnnYd3o1HYq2Mw/UXZp7u7wWMLf661FXf3+LwBVFhucqYlxeqZc2ZL9W/zX8V3Yf2JV7LsR1N6NOqr4Sp4+x1tqdGuPjBmjD+L1TwBZkv1kfmB3t7DfssvnMcP1N+dGqfjBgb/AFtqNOuPhLVBUFxIUDIFQJCgSCoG6yl9ui6n+yVpZRtUeEqOY7PV5cXQV2DmhAQEBAQEBAQEBByjOvlOq64/dMXNY/aKvLhDp8v2anz4y0qpriQVAyUCQVAyuokdBy1g8LaIMnDduuB0d42zsktaPOANpb+CwtFNjRc11/v5YGMxNdV7TRqo/fwpFZTPgmfE7R8TrXGm7c4dYsVg3bdVquaJ1x+6W3brpu0RVGqVqxoCuw2KtaLy0+koHNuf+9ndRWtio/ysLTej+1Ov782Xhv42JmzOqrV9uSoArEbCV8zAuNR/H4W2TfPSeNzuAGvpbY9YW5c/mYPpf9UfbnHx8WPR/FxfR/5r/faVRBWA2GQQSFAyBUCQoG6yj9ui6n+yVpZRtVPhKjmOz1eXF0Jde5oQEBAQEBAQEBAQcnzt5TquuP3TFzeP2iry4Q6fL9mp8+MtICqa4yUCQVAyUDa5aw3jVVHERdg8OX+wcnabDtVjCWOuuxT3a58FbF3+ptTV36o8WzzVjbjXsMJ0onWZbcXg+H2abPYrGOxUziImj/jj38lbBYWIsT0/++HdzerONO2eGnxKIeDI0Nk81/FJ84N2nsXpmNuLlFOIo1Tr/fZ55fXNuurD192r993nyPiAZO6mk1jqRax3bYG7tFx6F5ZXe6NybVWqrj+XpmVmaqIuU66eH4anGaA01TLCdzTdh/Ew6tPo06wVRxNibN2aPTwXMPei9biv90vGCvB7N/k7EeBqgxx+rqPAdfcHfdPp07VoZZf6q90Z1VfDz7lDMLHWWulGun483lzDh/FqqSMCzHeHH/YeTsNx2KvjsP1F6aY1T8Y8Htg7/XWoq79U+LXAqmssgVAkKBkCoG6yh9ui6n+yVo5RtVPhKjmOz1eXF0Nde5oQEBAQEBAQEBAQcmzv5TquuP3Ua5zHbRV5cIdPl+zU+fGWkBVNcSCoGSgSCoF2wj/L8LkqzpNVWEV+QG+x/wC3rXsfxcLN2f7VavtzY9/+TiotR/WnX9+SmX7etYzYW/JdSyaKfDZvFkaXR+a/jAecaOHatbLq4uUVYevVOr992TmNE26qcRRrjX++ytVEUkEzoz4MkL7XH4mnRw/YrKroqtVzTOuJadFVN2iJjVMLVmRorKGDEGDw4xszAcgvYjsd+xutXGxGIw9OIp1xr/fpPsy8HM4e/VYq1Tq/frCoArEa7IFBcsU/jsMjqhrLTXEluYW2/wBrOW3iP5eEi7H9qdf35sax/GxU25/rVq+3JUFgtlIKgZAqBIUDd5P+3RdT/ZK0cp2qPCVHMdnq8uLoi65zQgICAgICAgICAg5LnfypVdcfuo1zmO2iry4Q6fL9mp8+MtGqi4yBUCQVA2WX8NNVVRQ/dJ2pCOSMeN6d3avbDWeuuxR3d/g8MTe6m1Nff3eLb56xIS1Ip2fy6UbNhu2z43osB2FWMyvdO50I1U8VXLbPQt9OddXBW1nNF7MIklbUwOh1kEjdgc5JtY+Yi9/MvSxNUXaZo16XlfimbdUV6tDf90FkQqoy3+Y6P60DzGzT12v6Ar2bRT1sTGvR8fso5VNU2pidWn4JyPXN25aKXWOpabA7tq1iO1vspll2OlNmrVV++6MytToi9Trp/fZosUonU88sDv8ATdYH8Td7XdoIWdfszauTRPcv2LsXbcVx3vMCvB6rJkrERHUGB/8ALqRs2O7b5PTqO0LTyu/0LnV1aquP5Z2ZWenb6ca6eDW43QGmqZIfug7TDzsO74dip4vD9Rdmju7vBZw17rrUV+vi8SqrCQVAyBUDd5P+3RdT/ZK0cp2qPCVHMdnq8uLoq61zQgICAgICAgICAg5JnjypVdcfuo1zuO/31eXCHT5fs1HnxlowVUXEqBkCoF3y60UGGz4g8DhJxswg825npN3HzALVw0f4+HqvTrnV9mPip/yMRTZjVGv7qYXEkkkkk3JO8k7ysifj8ZbERo1AKgW3ItE0Gavl0jpmkNJ/Fa7ndjdPzLTy21ETVeq1UsvMrszFNmnXUr2I1rqieWd2+R17fhG4N7BYLOvXJu1zXPe0LNuLVEUR3PnBM5j2SMNnMcHNPMQbhedNU01RVGuH3VTFUTTOqVuzZE2qpKfEoh90MlA5ATbX+11x2rWzCmL1mnEU+f79JZOBqmzdqw9Xl+/WFQWK12THEEEGxBuCOQjcVETMTpgmIn4Su9RLh9fFTy1FQIJWNs8BzWm/KDtDdcXHWt+urC4uimq5V0ao+sRxYlFOIwtdVNunpUz4/Z55st0Rp55qeqfKYWOdo5jhcAmxsOWy8bmX4ebVVduvT0Yme6dT1px1+LlNFyjRpn6qoFhtZIKgbzJ32+Lqf7JWhlO1R4So5js9XlxdGXWuaEBAQEBAQEBAQEHI88+VKvrj91Guexv++ry4Q6fL9mp8+MtGqi4kFQPfguHuqqmKAffd4RH3WDVx9H72XpZtTduRRv4PHEXotW5rnu4t9n3EWumjo49I6VoBA3bZG7sbYdpVvMbumuLdOqnj+FPLbMxRN2rXVw/KrArNaT6RMc9zWNF3PIa0DlJNgEimZnRGtEzERpnUuWapG0dDT4bGfCeA6YjlANyfzP8A2bZauNmLFimxTrnX+/WWTgom/eqv1ao1fv0hTljtdIKgW3JFY14nw+XVk7SWA89rOaOzX8pWrltyKulYr1VavuysytzT0b9OulXK+ldBNJC/xo3Ft+cch7RY9qy7tqbdc0T3NG1ci5RFcd74ryeiQVAtuVvJ+J/7bvduWxgdkveE8GTjtoteMcVVCxWsyUDd5N+3w9T/AGStDKtqjwlRzHZ6vLi6Qusc0ICAgICAgICAgIOQ558qVfXH7qNc/jf99Xlwh0+X7NT58ZaMFVFxkoF2ymxtFQVOJygbTxsQg6XANgPzP/Zq08HEWbNV+e/V+/VkYyZv36bFPdr/AH6Qpkk+25z3ODnPJc5xO9xNyVlTOmdMteKdEaIj4QgSDnHpXynRK2ZBoGvmkrJLcFStJDju2yN/Y257QtHLrUTXNyrVTx/DMzK7NNEWqddXD8tLjOIOqamWc7nu8AH7rBo0ej97qliLs3bk17+C5h7MWrcUR3cXjBXi9mSgfakqXRSMlYbOjcHN6xyL6ormiqKqdcPmuiK6ZpnVK1ZygZPDT4lF4sjQ2TzX8Unzg3aexaWY0RdopxFHfr/fZl5fXNuurD1a41fvuqIeOcelY7X0Sy2xzj0qDRK25UIOHYn/ALbvduWvgdkveE8GTjtpteMcVWBWM1WQUDd5N+3w9T/ZK0Mq2mPCVHMdnq8uLpK6tzQgICAgICAgICAg5BnryrV9cfuo1gY3/fV5cIdPl+zUefGWjCqLiQoFwoM9yRQxQ8VjcImNYCHltw0WvaxstCjMaqKYp6Or6/hl3MrprrmrpT8fo9H+IUn9JH+oflX12pPye/4fHZNPz+35T/iDJ/SR/qH5U7Un5Pf8HZNPz+35eLGM5y1MD4BC2ESaOc15cS3lbuG9eN/MKrlE0RGjT9XtYy6m1XFc1adCtArOaLJQJBUDJQN/gOaJaSJ0PBtlYXbTQ5xbs33jcdOX0q9hsfVYp6OjTCjicDTfq6WnRLZ9/j/6Vn6h+VWO15+T3/Ct2THz+35T39v/AKVn6h+VR2vPye/4Oyafn9vy+NbnOSWGWIU7GcKxzC7bJsHCxNrDkK872a1V26qOho0xo17/ACfdvLKaK4q6WnROnUrAKyGoyCDeZM+3w9T/AGCr+V7THhKjmOz1eXF0pdU5oQEBAQEBAQEBAQcfz35Vq+uP3UawMZ/vq8uEOny/ZqPPjLRAqquMgoEgqBkoEgqBKgZAqBIKgZKBIKgZKBIKgZBQJC+RKgSCoG9yX5Qh6n+wVoZXtMeEqOY7PV5cXS11LmhAQEBAQEBAQEBBx7Pjh9K1evLH7qNYGMn/APery4Q6fL9mo8+MtDtDnCq6YXdCQ4c6jTAyDhzqNMGhIcOdRpg0Mtoc6jTAkOHOo0wMtoc6jTBoSHDnUaYGQcOdRpg0J2hzqNMI0Mg4c6jTAnaCjTAkOCaYGQcF8/A0JDgo0ibhQN9ko/5hD1P9gq/le0x4So5js9XlxdMXUuaEBAQEBAQEBAQEHxkpIXEudFG4neXMBJ7SFE0xPc+orqj4RLHiEHQxfpt+CjoU7k9ZXvn1OIQdDF+m34J0Kdx1le+fU4jB0MX6bfgnQp3HWV759TiMHQx/pt+CdCncdZXvn1OIwdDH6jfgnQp3HWV759TiMHQx+o34J0Kdx1le+fU4jB0MfqN+CdCncdZXvn1OIwdDH6jfgnQp3HWV759TiUHQx+o34J0Kdx1le+fU4lB0MfqD4J0Kdx1le+fU4lB0MfqD4J0Kdx1le+fVPEoOij9QfBOhTuOsr3z6nEoOij9QfBR0Kdx1le+fU4lD0UfqD4J1dO46yvfPqcSh6KP1B8E6uncdZXvn1OJw9FH6g+CdXTuOsr3z6smU0TTdsbGkcoaAVMUUx8YhE11T8Jl9V9PkQEBAQEBAQEAoOe5Q7p8eIYpJh/FuBjdwxo6kyFwrBE6x2Rsi12gu0JtYoNxnDNzsNqsKhNNwsOI1HF3z8Js8XcXMDTs28Lxid48UoNhnLMDMMw6pr3s4TgGjZjvs8I9zg1rb2NtXDWyDxdz3NwxeidUmHi8kUz4JYC4u2HNAO8gcjhyc45EGOF5tdUY1X4WyACLD4mvkquE3yODSI9jZ03u1v90oK63ui4nXSTfQeDuraeB5jNXNO2Bsrhv2A6wI3HffUXAQbTKWfXVVa/C8Qon4dXtZttie7hGTMGpLHWF9LnlGh10QXdBU8Mzg6fH6/BeLhraKBs3GOEuZC4QnZ2NnT+adb/d86C2ICAgICAgrGQM1nFqapnMAp+L1clLsiThNrYax23ewtfb3eZBZ0BBWMoZrOIVGLQGAQjDKt1KHCTb4bZc9u2RsjZ8TdrvQWdAQEBAQEBAQEFO7rOYPo/BaqRhtNOOLQch25LgkecM23flQc+zRhkWF4NgVZSTwvq8EkY+ZrJmkyCZwdM3Q3cOEIb/aSgtndbjbX5c49TEuMHA18Dm7w3S7uxj3HsQeLPmIDFG5ZoI9W4tNFWTN3fw8bA94PY5x62IPRlVww/M+OULvAhrYmYjDyAdKRzXc5/qIJ7jVLximxTFZWkOxislcL7+AaXBrfNZzpB2INRhEGZMuNkpIMPbi+Hte6SGSF2zK0OOrS0XdflI2TqdDzBuss5uwfFMUhNRRSUeLUzC2FtW0tds2cXNYb6mznGzgDYm3Kg6Og5Zlr/rrHf8Awo/ZpEHU0HNscwvEqqvq3Yjir8Hw6IhtGykqmQOqBreR773G69j+Ic2oeHudY1LHjtVhLMVdi9HxXjENRJIJnRvDmAs4QX2vGPLbQbtUHjwCmxbFsTx2lfi1XS0dHXSAcXfsyuJe8MiY86sjaGbhodr0B8stUmOVVdiOAyYxUNpcNk2n1bD/ABUrX/y4hKTdotdxOp0tuOgb/udVVbTYxi+B1NZLXR0jI5qeaoO1I1rw0lpcdTo9o/Lpa6Cpdy/LFbiEOIf5nVUFHHXy7EdC/gny1BDNp7379kNEYA3XvutqFsyZmOso6jGMKxSc1ZwmHjcVURZ8tMGhx2ucgFu+5uSLmwQa7K+DYvjdN9L1GMVlC6oc40dNRv2IoGNc5oL2f6guN28gak30DPuMirjfmQThstWytdwlrMbLOOEuRoAA52t7W1QfP6Eq3xOqcdzLNhtU5ziKamrY6eKnbchg2Q6zuQ6EGxA36oN53Gsfqq2iqmVVQKt1FVvgZVdPEA0tcTy7zrvsQg6AgICAgICAg5VnOl+mcy0OEvY59Fh0Tqms8Zoe9wFmXHXEND/qOQb6o7k+XnMe1tA1hc0gPbLLdhIsHC7943oNH3JTJLhuJZfrWuD6J81MdoEB8Em202J32dt9hag0ncXoaqbEnPq2Fv0HRmgjuCAXOmlO0Ljkbtt6rINh3dqaeB9DilK1xkMVRh8pYDcsmieGHTXwdqQjz2QXvA8AfBgcOGxyOglFFwXDR3aYp3sO1K22oIe4uQUbLfdFlwqIYdmGCrZPTuc1taWmZtSy5IcXnVx1tcXuByFBg2uOYcewqsoqSaKkwouklrpo+D4e9iIm/iF26C9/DcbDlDr6DilRmGLC844zV1MNQ+KWniiaaeLhPC4OmdzjTwCguWD91LDqupgpY4K5r53hjXS04Y0E/iO1oEHPoZMKhxnFn5oimfO6oPEnTxySxOp7u2GxtYCDps2uLdRug2WSpozmwSxYe7DqWooHx0UboOA4VrXAmTZAsC4skPPYA8qCw9yuNwxHNBLSNrE3EXFrjal1HOgzyMxwzJmhxaQHOpbEjQ2Y/dzoMcvRuGcsdcWkNNJT2cQbHwINx5UFW7mmd6fCqetgxKOeCKSsmlpqkQueyQmwdFdo0cC0H83JpcNzk7Cp8Wq8dxeeGSlgxWmNDSslGy8wlgYZCOTRrTyi5PMg8uSs7xYLRfQ+Lw1EFTROeyEMhdIKthc5zeCI0O+2thu132DHueS4jNTZtnZDJT1tRK+WCJw2XRyuZIWMG1ygkDXlGqDR5Kq8swUjW11BNV4vd5npp6WSolml2nWDWuBYL6DWx59UFs7hfCNbjUU0JpphXmR9OW7PBbYI2RyWBa4C3Mg6kgICAgICAgICAgICAghzQdCAetBICAgICCC0HeAbbvMglAQEBBDmg7xfrQSggtBtcbt3mQSgjZF72F+dBKAgICAgICAgICAgICAgICAgICAgICAgICAgICAgICAgICAgICAgICAgICAgICAgICAgICAgICAgICAgICAg/9k=;" vertex="1" parent="1">
          <mxGeometry x="440" y="74.5" width="226" height="223" as="geometry" />
        </mxCell>
        <mxCell id="juRgAYWE1Qn_RtXxcc75-6" value="" style="shape=image;imageAspect=0;aspect=fixed;verticalLabelPosition=bottom;verticalAlign=top;image=data:image/png,iVBORw0KGgoAAAANSUhEUgAAAOEAAADhCAMAAAAJbSJIAAAAk1BMVEX///+hZv+dXv/TvP+ZVf/Rt//+/f+iZ/+gZP+fYv+bWv+eYP+cXP+aWP/byP+eYf/Vv//69/+6kv/u5f/gz//q3//Jq//Nsf/n2v/28f+ocv+lbf/AnP/z7P/t4/+yhP/Gpv/Os//ezP+2jP/ZxP/Cn/+0h/+sef/8+f/k1v+ufP++mP/Vvv+5kP+qdf/o3P+VTf/M0e2vAAAOUElEQVR4nO1d53riOhC1HYosWxhCC22BBFJgd3Pf/+kuTaM2ssVNsEyuz698MCg6VpumcRAEQfct/IFozxfBBUtKfPfmJsjo05lgk/ruyq1A4taJ4fRnjuARdHAk2Ap/LsPo4czw56JmeP/QGBLWkBCBVOP+EKEMSTuQ8fsiFXWD+wN0XmPYkoWaitCdoVkzNIXuDDVDROjOUDNEhO4MNUNE6M5QM0SE7gw1Q0TozlAzRITuDDVDROjOUDNEhO4M/1+GitADF/rtpY9fwwPKMAwfJHQf4/OH8WP34d4AndcZRjJi/mkc3R945/93Pu8fiJrh/aNmeP/4vtOiakeL7bRAD02XE79q6oHlxP+K1lY1FQ/X2r6ieVdNTf9+26JmWDZqhojQVS36R80QEbqqRf+oGSJCV7XoHzVDROiqFv2jZogIXdWif9QMEaGrWvSPmiEidFWL/lEzRISuatE/aoaI0FUt+kfNEBG6qkX/qBmqQj/eI/yjvPoowx8UmbExvGfUDO8fNcP7R83wjB9/Wvz8E//na22lat6/Ot1O30Ww//S5yPm6qrbFOqFplFKybuXL9fcRPYCM3t36UxWGi1l6LtBB0nbuOI5YdpaL4ien/lSE4SSDDTkkLIfioyg2QxoDl/5UhOFUEDT6ImOtVNNJ8dVYRYYPqdzxMBpZ5CZMkYt3Dv2pBkO9DFBkkRtpqhb7VdyfSjBcqEMThtSyiRhPYlzcn0owHKiT1NpSL9Hk4pfi/lSCYcdgiI5NMNGrdsXL4v5UgqHzGOoWT/xa3J9KMOwb6/ADF5xp6zBZFfenEgyNnlOL3EhbiPiTqCLDpnYerixyk4YiR0KH/lSDYdCWB5HEVqV6rOw17NmhPxVhuIgERcI+7YIv0mjTrUt/KsIw6LczmHo5BINgC/spWzn1pyoMg+D1onynln2UA3wUHbf+VIfh6rJPptaen7G7MKSoTmr2pzoM+UkQNfPl+KZktyKrypD7jzLL/nFBi281rGcTGf9zrr33z/r0g8ow5Kob+Zsr1ufnhc3C0lEdhkPe9STXFdVxexAC1WHY4sqp2EIWm+1uRtrTl9EApiTfkLK5a7uVYQjmLW9ms6NpFpMD4oRGj8Pzp3+5lKv7uUIM55cz/2zWDtpqjeqs8To5fNwzR7oAFWIIdjA9qKVzZtQ3zo4n5YYvQ+LabIUYggWfPr//RaN7bBssIQrk2myFGAa7y7CRpeI+lZC+wF8Wb7CJIoYuNWgfrhF2aOcwBXGCh6Hjf9CC6IZAUYTUpY4wzChcmLl2pqe7a+xwPivKiHLn+Oh17DPj13GUHs4M42M2vE+Gv3SPVMaWzc6ws4+07uBexDtgCDvlBYy/waE1Vg9HZgusVZ6hMogkkmzhfiiRv2YIK8YweBRLjhAldtaTThBnfcYPw+bvTWfwNOyjBmxPDKIeHHyHtzgQPKj2Mehsug/NsRaaK51hq5EeQClDT7RnODCYcaT/Ak8ixSKj78eGj+k0mju59POwxftJMIZcrQkjxNJfc/qoMx+CGppp/B06zVVF+Fu8IwnihYAABu7N5pZTmCK/nXCdXK3w4UEv5cuJTszvtjwukW6wn37QnK/5JCZT9fPyGfIoDEUcv6CYzvDf8kmMHRfc+NKD++Uz5Kc6MqefYIws8/0ZBMxpanNvlM8QerI3voLgWRr0npvj7hP0adJZ7efNIThLEbfx1OLeKJ8ht9LDzPiK7yRkt6fHjZ8mo1OvJo80TbIsojs+TRNjq4VsB332l89wwWeaEd4EZ29IIEW0fRDqRHxsif3Qh/GPtFPIg43PN9P4j/bFEHl9GGGPe93iOCLVecS8VT09wwNDvhAN1WSDWsCxaR0ewLTfgoqS6lFTDwzBgNAf9/gKVVFbbT3QlIzV7cMTxeNjuu651ROCcqB5ol5h4RopcT4YDmC9JYpe88fiYcOgnqYjmN/UOCi9eBNBv4xn0n/9UIaQJLrnQl2PsbQTj2EvSs1kKi8Mn6BH2V945s+KfZ/Go24kcSLsZU5lzqQBuukc5gRmbfvxCM+hrzEfi45MMGofFZPeH5h80fQg1hsr48rOysvTTHzYQHRdPwxbIn+GsNejW+lDygUijG8XvGUeF35fNSSP1GEUF5ulFOBIV9j/8sJQRHKPw0jb87U0ONEUHBzcXhAtD2fSaj3odam0OyVoHp+vuMVAzt8imdRtJtkGJsPDjmt7cWqCR4W9RWY2mC52JCgbtxjDoIn/MtrhPj1/sadOA4u/qEoAyjDoYKNI0XRhrwyDYWZqnA3V3sAZBh/GKBKGZxUHfuOHE+Nly0zzv1gYqkfLAenMHqnxGyHtZoriQvWBsDEM1srpmealUXmOAbdWUtplYiwlK8NgLx5Ne2xNRz39C78MD4c4ZECTttFTO0Nx9aIodcg7Q/CBYlHPHIYL4eNHfauAolrQN4/jg52BJXfnMBS54Tbn6gVQz/sL7wPGhd3C9zCEaD/zGIpnQ81075745zerOq9O+8mvQXe8X74ZXbHZ+w4MhxDkmOpftWg43T2Omp3PVjkMew1G0yjJYt1DFnyCzwYN6+YyFIkNTPdL9hghcZxENClrDCGvVw/8gX8FT67IZwi3L4zH88mjNG9HhtbsnG9kuLM44yHRyxKZz2cYzMEvqcWx+O5+yg3Tr/TdhOHWEjUBL6flikUBQzgxorX6BV/dp5zxtc3c+k6GHUtGIZ+9xNyCXBgGLxcm2kYMl2npae4b6u8NGIqwibJjwj5ju4FQxBDOGqosY/AYXEL6DzOHM+96KOfhFA1tCv8+TqCQIYRbE8UR3LZFRm4IeKrKnsl5W/PwChnydhXlFLQd6pyi+XXANJVXnJi7tiSuQoaw1zCxm0JSBsmuyFX6MuDgk2y5Lh8A/Bph4MAQVDdpJb9yRcBym/hGEG5ucZuH74T2ZNFihjxelUFWtDgczBjGTQEKKAn5hIKoPX5RMnBhyKOqYBsJB4f1JuqNINIO4/aZIqyhhvVZFzMUj+nciCBI4jJX4RHC7xC3T7mFcNHJbt85MOQL/BwyHQn/DSu45ff9eJdjFaOe2OlzcrYdGPJWjkkmnZmIkyclnoUcQ8mRH0X751d76hCHA0Ou1pDdI0mly8T229I3RFNWgTOIqVC7r9OB4QScGbGsfaZOBae+HVtUy4+QFL4LHBgGaGi8UXCZ+GbYYxkzbbu8C8M303AgqEukHGzNuJHNcjrChaF5SYMYXo0y0TTupOUZAC4M9VoZYTr1swY5+n81exSvT3KGC8OHSG2O2opMlYffIZV3hzz92IWhSH4/zIe0sbXvWyWi8xJRiMjk9d6F4QdnGLN4uSlX2c5B72MNGa85YQcXhjyxOH7sl62IFoBf+8WT1s9wYciti6RUa9AFfJe3205uDHmOfuJ/h9Gw5QxzTmcXhty/Xa5F7wKXWibX7DRFFUPKB9QyyYk6ujAcOMj4Afew5D17F4ZcJm/H8gOIHH/xxOe3rtzvr5cFrouYVydMmbwiGHy255iZngAntf3K62IPFRTsuhjPnTZik97BPd5WR1T/pSFqoTfmNn2Mhy7YrTr6n/HOreEM9ai0Vop+HiZ6jJDLZQUPyiO4Yoreee3qV/APW0kb20u41xUvZeoX3KmPbIJPU+z6DKFL07blx2GemekLfBM0+rZ4MYvTXAaKbfXlCKpR5Y5DKfStOmpaI4redOLLUTsauSOK+nVdoBCxP9mu64TqAiRZpg5oOpP9TO/ctWXeZqwA+G1C6SLiUPPiEDqbz2faZ2wp9iaud+P1dn2DW4iwEN+16lDkMl4fM3XjiemKDzvPY6me3n2gs+AWIvcJN6nqGEwyUNYeEvWriFsk4lbp6/iKgie3x3C0yxhsKCeV0hgotpVUgd6cqe77dHq6aiOc6HFE29vc0qfl4X3dZok8HQ/TdLFk9sV2Qt+QeFmAs+fyUcZ2VRjIdRJpxx2Zjag2QjNEfxnoo5yOQh0x++PbofjRRtQVoi1AW/J9M9UEzabC7Kslx76IlU1dkYfBakcEvT0rvmhKX31ERy94wfRNBYTtcisI/doVP6Nk5s1W3BXe1k7bOe7TM57bha0QTyHgYKl0jWRRqt/1bYwdPPOtNdM0V8poqih3JPMSoNnLUzRhs31zs5Y/Ouz/jv06LEeZT2PR62/2cqJCGPswiOXrWAndnueR9M4AVaUuwPBNPJuLTtrayKdJZJZOuTUm4t8TNue73QaUkuxKzXIDM1ykUK+lS7Plx/L/wNoh8l16GMToyh5BdFv2X0x2oj5KTgbETSDy2kTq3hEDyDzFSmO5tNdQjgaR0ZJ7Z+8GeIHcRKIygVqJ2VUmHtwxSLSksS2kEJU7iOKFR3pVADEY9IqHLmoWGDXD4JGVmQQtVWYx3Z4r6GzD2TBo5lTCgC3Nvdbwd4BPKiTjWRRYIJGjKjIQixo59+AKQJl53uB1wpx+Q9HfnBw3Cc8iyxG7LwUXSq6oVPtldP45Xl6LCTFurx2xElt86KAzd6UCmWhobhfH2bE6LyvTjur1Bw/b1ynFU7wgCfxwZhTWJpXygDM8bjUKl9vm8y8vpnALt9x6wqlB8nIzDphI6hpyN7qykAuZsbxK1htJLyOWNzxWEwNJLT+VoUPx+SY9CVLmRvINkLaPoxmFrcYPxdtGrHeJqgqZYhizt65ycLSGYzWlMU4qGIopgFrOhaR0Nx70J63jNtx8CaniYQ2TWSWyLK/EZ6L60UiSUsZO98BjzftkrUZTcUymbnUFY+rXJfoVrNDCQyoIW97jDOV4wlziCj8Hf2PFsdZdjCo/UpFX1H8FvVGS4nM1oX83Fct0/o947741Ii0+ESc03d6XEpOPRXOXsTTK4vhkCbF4OapI9PMb0Tqc9Nv945/5aj3472n4/wLIHQFmdMho7gAAAABJRU5ErkJggg==;fontSize=14;" vertex="1" parent="1">
          <mxGeometry x="740" y="101" width="180" height="180" as="geometry" />
        </mxCell>
        <mxCell id="juRgAYWE1Qn_RtXxcc75-7" value="" style="rounded=0;whiteSpace=wrap;html=1;" vertex="1" parent="1">
          <mxGeometry x="1120" y="480" width="800" height="310" as="geometry" />
        </mxCell>
        <mxCell id="juRgAYWE1Qn_RtXxcc75-36" value="" style="rounded=0;whiteSpace=wrap;html=1;" vertex="1" parent="1">
          <mxGeometry x="1120" y="3" width="800" height="330" as="geometry" />
        </mxCell>
        <mxCell id="juRgAYWE1Qn_RtXxcc75-37" value="" style="shape=image;imageAspect=0;aspect=fixed;verticalLabelPosition=bottom;verticalAlign=top;image=data:image/png,iVBORw0KGgoAAAANSUhEUgAAARwAAACxCAMAAAAh3/JWAAAA8FBMVEX///91nD5LYSy3yp12nj5ZdjFvlDtIXStniTc3UQbg49xsli7z9u5JXitqjDhloABvpSRxmTdspBxpohRxpimtyos8VRPn8N2DsE3x9urV4MfL3bbIzcBwmTX6/PiOt1+20JifwnaXvG5DWiLf6tK7zaOXs3Le59TA1qd8rTuSuWSlvYWeuHzn7d/U48WmxoFRZjO6wbGNrGSswo6EplVnkyJdckCwzJC91KOesYR8oUmww5aHqFqRpXd9kWLI27Juh01/jWyapY1rfFXJ1raBlGfM1MFme0peeDrU2M+muYypsp6GoWBgckdfhSSItFStVpp8AAAL00lEQVR4nO2dC3faOBbHeUyn20IjIZmCQzAYTAYHYpKQlDRJy8w23e50tsv3/zZ79TI2YAXSzlLg/s9pDwFb0v3pvuwEyOVQKBQKhUKhUKj/iy5/H55vew0/qS4v3r5o3lw/lre9kJ9PJxdvC29e/JKvlEqnv217MT+XwGsKBQkHVCnlexheWp5CE8MBNUunx9621/UzyKBJwpHuMz5493kdo0nDEe5zc/V42O5z8qqQBUe4T2l8yNn55K0FjnSfu97BFven4ICguB9ve5nb0RpwRHjd3bvbXukWtBYcWdwPMDuvC+cgi/v6cGR2vj4o99kIjszOw8Mp7pvCEdnnrncg2XlzOHlV3A8hvJ4FR2bnA2gNnwkHvAfhHCqcskwbCGeFTv7olioP4+gS4Szo9T/fve2+/DVfaZb+8RLhJORdfnrbBRQvfxUoEE5Sr19JNAhnlV6bW38IZ1kIxyKEYxHCsQjhWIRwLEI4FiEcixCORQjHIoRjEcKxCOFYhHAsQjgWIRyLEI5FCMcihGMRwrEI4ViEcCxCOBYhHIsQjkUIxyKEYxHCsQjhWIRwLEI4FiEcixCORQjHIoRjEcKxCOFYhHAsQjgWIRyLEI5FPwBORegG4SRoNOFf/u7u+uHh6vR0OBg+Hh8fP4J6xfu9+cCLteBUjPISh6AxHIzH98ViTwhwDE6vHq7vxPtuSs3mzb58nMPTcCSNIdBI4NBIhhLJXb6pyZn8cyhwfnlx8e3Lx88f3t9LLMXieDA0XtJMEkkm58OB86ZQ6EoVLo6ASCULyaHCMYccrVe+DhLOm6O12CAchINwEE6mEI5FCMcihGMRwrEI4ViEcCxCOJnyyv/6G+BUBr3Hx9/Oy7v6OV5e+fy3R3FP5v7zu0L3h8MpgsS9n8djYLRtWzfUn5/vi3Pdf/hS6L55+au44/cD4FQq+UExqcHVtu3dSCevul8+3PcSBrz/AnCur4Yfut8Hp9K8Ox0nyYyv8s2bbdu7kcQnc3WBTzHJpwhR1vseOJVK5eE0OWRvfJpvViBBb9vejaQ/tqzb/fi+mNZ7ccfvOXDAZa5S0QRk7prqluFOwgFzuxcLfGQC6m4Ip1K5hmBK+czwen4zdUfhSPe5+Pg1teXF9x8vBJ/14ACDh+E4FZ/F4UPqNvPuwpF83qXKlwivz8DnhbiV/m8bHHgdgilNZnCVX7gBv9NwFJ90+Sr2vn74/Wow7n0sZMFRlSl5Uq83XiKzB3AKunylJO3+0n2zAo6oTIvBJMg0V/3WZg/gCD6FL4vlS7eIKTiVyt1SMBWhOGX9PmvH4LxaDUfyWSrvxXuToY8UmYVgEkcki9OSdqsJ/LOb4ToqvBbKl9TXj++63aNm/np4v0CmVxxcr0g08wgsPWzb3s3k/WXDI/h8XuZz/+E/g8XngMxDpZlNBtBc7d4fpDyBZ0X5WqWsFByjudlBNFJ/XVjxyPJ1nw3GXDllq3mzw9+q5j2FB8rUYnmPfSa7OMVes8NohJ7Gs6p8pa+csnLNjqMR8i4LT+F5s1C+Fq6c9haNkHdpT80q/cDVV09cHwwe8rbitB8BldLT3qP4LF9TrkazZ1/Qc/lk7hF8jtZAU9o3NLnEF1Taks+T95D3Eo3Q03iegrO3aKSewGOH09xrNEJWPNYb7HuXhlfp8l0mnmw4lZtD+fbuy28ZeLLgNEuHgkYoA89qOIeFRmglnlVwDg+N0Mly7lmG07wZHCAaoSU8i3AOF43QSTq40nCapUNGIwR4uivhAJoD+YJKmxJ45nAqiEYrxhP/Uu/gAyopjUfBgYDatT/z+5t18u1VV8JBNKt08ulV96hZGiOalTr59F/0mmwhGhQKhUKhUPss7/h4s6vO4Dj4EfMGx+u//y+qVhs/Ys61dD5tT9qReuNdjZDRRic7hOdy/WrVIAqq1Ug/dKvV/rrDhISsPyVj6x/8fYrqnDPGOKuKDrlGWHWj00Pq5HJTwg1Sn/NQP+wTsgQnmExqq4ap07XtbXDH4dONFvlcVQll3AkZp4xGz4VTZg41PzsO0dchLUqW7plNCVkZEhvAqdMwpPWNFvlMjbjDRzXPK4MDkdvnwhEclEME3KF6W8t0hQlTzr8TTkB4f8JIHMZRpP5XO+JGUcIz4Wl93HkUS29dLX4t58mHXhCl02eDONw8M+nkUnDEweZaNB6oFg+ux1Jwppy15bNtFs5YR53Ded8cGa+4wblJSYBvPoOCE9toUYey8jmhZ/rHGSSrPieci1xZbokHjlpr0CGEcELkwvrwAjwW/8lX+1QcSaoy07qEnOV8+eJtYiaI3iiXVAyn1pIHz+RQHiEtTZCowcu+HPxWwykTOpOvh2xyy5iccsS4iKpoJtfIhMMEhDkOI2qMczVDPVJwuLbRt78l2yXUl56qi2qLOm0xDnW4n6PwACJcejF4GGch5Q4RBk2dUAqCXrzY4lSgoswRS3QZ9c+4HCRBJ+K0lZ7bwJlCKgIjGJU51WNmp9qMi8FdyFBcbMuoLuGI1Yo9d2FjakQBdyQvyNWEQkpzyFTD4QpORKhaoNzaOqV9bePCihYEEVUTCzcODnBYOA2iFkA5I34U3FKHStc9a4ktiMDgeebzqfTmEadhw/OCFqOhhAPMWo2gAcZQbz7TYgbQcGoQbhM357aZIwxZgjODfALFP5hB5ZBwdC6ZcsfLMTWEjqrQhxO8PtfHiRk9T/gabHXNcxuhdKO6sLEfRB2YMO3LaXlUuSil2ooWpaGnKaltj/RU2spbNg+OWy6rqgt7oF49o2LZAIfJauuFTpzMIH7JQmHVcFomq4Jv1ZfhwK6HZm1qJRBXYrvOeEfEU6iOdBNr9NVUcc6pMjZR5srV1I2NPtXZa7VMQofR+3oBekCo8LqHCClNZK5oXgIiwqRb9rlpBWoydAQcz5gXe0uH8pVwPBIXGlmPF+FU492o6W0CXxKbQcTYERccQp2FtGADg4RxwoLky3VjIyzXt8Axp3kqIOT6lF1BItIknAC2XqQ7x9gLQ6sNgOWbywBHDAM5R8dyI1FMs8IqmNestjBqEQ5sl6lZKiHDbojqCrtUFmjZLbgSU1sL2UCskTkpOJ7ytAQcXcpFcsxmExEnPBPqmFLSoixn4LSTcBoE5oXulhk40FowtWpdKoTk8mHOzjIcCJrU9sZw4onAaFjEHE5VwyEmbxk4rjixqrJpi81gGpUHJ3qNdAlOisGacCCKKZOiKt9nwoHkVK+p5/WMMIXOJ21m+hdP9mKr4XiOs+A6Co47X7ovqgPA0RBnMhD9OByhN3aMeWEuVIkAuh7PZzPFjHZcDTkFZ6FDXA8OBHE4U2qFuihnwKmZvNLQDzos7s2DuE3qM3HSajhQaOeNzu0ohgP+oB0PfJEqiGW1AkdgaXCqr6XaMZw+Z5H2FhemcBQnmE1hrC7knDOTZFTGXg/OKFF5GlxWmCw4rs5dNX0hVuWJRA9bLNMGFDbmZsLJdcBaP/A8rzHjouHQcKDNqcv2qK4aA5hv5oqmgUo4ApYsm1NTygURJ9RJUniRvq6ChkTVV51zGjJtyoLnyE7Wu2XBunDK3EwgTnRkbGfmnBlls3a7A02hgAOXAk5VKZKTsNAf1aHJauSy4eQ6xGEcWjTRLQbzJrADLeTZ6AxaPZlFYGzKwZ2Yrm9gGhejk9DkHNWqqOos/EnHIZjAz9rtFtE5x4Xp6qGwagRD1DvgQHy2Lpx26jJ/InezxbmGQ7iGM+Mi8bqhvGBwbrloP32wj0vJntOtE/kDlY4Inq7DrEFI6nq/QWVO52Qi/BvaW1WnJupsoqtWlchjgjZXnRHUJZiMhG7I9M7lbkmc8WqEGjMCOQqpgymRGUg9hK5frFfdP6qbWzQu4ZlwfD95beF2fDh14uvDa52O3nR4SuaAxsgfNcTzMFvfN9JHBe2Rb+48lTu+5hrJg5NSx3l6xo5GV57C2NO4m6pN/FHfyzU6Hd0iNNTgI7M4sVhTnb2R3zHF0uvLA2FalXyikd+uLc1QNefCKMmLPxQKhUKhUCgUCoVCoVAo1I7pfxhDqpQzwKlTAAAAAElFTkSuQmCC;" vertex="1" parent="1">
          <mxGeometry x="1140" y="10" width="208.59" height="130" as="geometry" />
        </mxCell>
        <mxCell id="juRgAYWE1Qn_RtXxcc75-52" value="" style="shape=image;imageAspect=0;aspect=fixed;verticalLabelPosition=bottom;verticalAlign=top;image=data:image/jpeg,/9j/4AAQSkZJRgABAQAAAQABAAD/2wCEAAkGBw0PDQ0NDg4QDhANEBUQDw4OEBgQFg4RFhcWFxcRFhcYHSggGBolHBUWITEhJysrLi4wGCAzODMtNygtLi4BCgoKDg0OGhAQGzciHSAtKzExLjItLS0tLS0rNystNy0tLSstLS0tLS03KzI3NS0tKy0tLS0tLy8tLS0tLS0tLf/AABEIAN8A4gMBEQACEQEDEQH/xAAbAAEAAgMBAQAAAAAAAAAAAAAAAQYCBQcEA//EAEcQAAEDAgMCBwwIBAUFAAAAAAEAAgMEEQUGIRIxExRBUVNxgQcWIjI1YZGSsrPR0hUjNEJSgpOhJDNUchclQ3ODNkR0wcL/xAAaAQEAAwEBAQAAAAAAAAAAAAAAAQQFBgMC/8QANREBAAECAgYIBgIDAQEBAAAAAAECAwQFETE0UbHREhMVQXGBkaEhUmHB4fAkMhQzQqJDI//aAAwDAQACEQMRAD8A7igICAgICAgICAgICAgICAgICAgICAgICAgICAgICAgICAgICAgICAgICAgICAgICAgICAgICAgICAgICAgICAgICAgICAgICAgICAgICAgICAgICAgICAgICAgICDQ4nmump53wPjmc6O1yxrSDdodpdwO4rPv5las3JoqidMeHNfs5dcu0RXTMaJ8eTy9/FJ0VR6rPnXj2xY3T7c3r2Te3x78k9+9J0VR6rPnTtixun25nZN7fHvyT370nRVHqs+dO2bG6fSOZ2Te3x78jv2pOin9VnzqO2rG6fSOZ2Te3x78k9+tJ0U/qs+dO2rG6fSOZ2Te3x78jv0pejn9VnzqO2rG6fSOZ2Te3x78k9+dL0c/qs+dO27G6fSOZ2Te3x78jvzpejn9Vnzp23h90+kczsm9vj35J78qXo5/VZ86jtvD7p9I5o7Kvb49+Se/Gl6Of1WfOnbmH3T6RzT2Te3x78jvwpejn9VnzqO3MPun0jmdk3t8e/JPfhS9HN6rPmTt3D7qvSOZ2Te3x78jvvpujm9VvzJ27h91XpHNHZN7fHvyT33U3Rzeq35lHb2H3Vekc09k3t8e/I77abo5vVb8ydvYfdV6RzOyb2+Pfknvspujm9VvzJ29hvlq9I5o7Kvb49+T04fmCGeVsTGSBzr2Lg0DQX5HFe+FzaziLkW6InTO/RzeV/L7lmia6pjRHjybZaiiICAgICAgICAgIOX5x8o1P5PdsXK5ltNflwh0+X7NT58ZacFUFxkCgyC+RKgSCvkZBBIUDIFQJCgSCoGS+RIUCQVAyCgSoGQKgbfK32yPqd7JWrku10+E8FHMdnq8uK9rtHNCAgICAgICAgICDl+cvKNT/AMfu2Llsx2mvy4Q6fL9mp8+MtMqC4kFQMgUGQXyJUCQV8jIIJCgZAqBIUCQVAyXyJCgSCoGQUCVA3GVftkXU72StTJtrp8J4KOY7PV5cV8XaOaEBAQEBAQEBAQEHLs5eUqn/AI/dsXLZjtNflwh0+X7NT58ZaYKiuJUCQVAyJ0USLxX0GEUrYRPC8mRtwQ55va1ybO03roL2HwNiKesp1/WebDtXsZemroVavDk8nD4D0Mnpk+ZV+llnyz/65vboZh80e3JPD4F0Mnpk+ZR0sr+Wf/XM6GYfNHtySJ8C6KQdsnzJ0sr+Wf8A1zOjmHzR7cnizRhTKaVjohaKVt2al1iN4uew9qq5lhKbFcTR/WpYwOJm9RMV/wBoaYFZi8kKBIKgZL5EhQJBUDIKBuMqfbYup3slamTbXT4TwUcx2ery4r6uzc0ICAgICAgICAgIOWZz8pVPXH7pi5fMNpr8uEOny/ZqfPjLThUlxIXyJUCSdColK35+/wCy/sf/APC2c4/+fhP2Y+Vf/Txj7qoFiNdKgSCvkXDDv47DX051mpbbHOQL7PpF2resfzMHNuf7UavtyY97+Liouf8ANWv781SWA2GQKgSFAkFQMl8iQoEgqBucqfbYup/slamTbXT4TwUcx2ery4r8uyc0ICAgICAgICAgIOV508pVP/H7pi5jMNpq8uEOny/ZqfPjLTAqkuMgoEhQB3FfMpheM7Uc0vE+Cikk2WP2thhda+xa9upbmaWrlzodCmZ+E6o8GJlt2ijp9KYj4xr81Z+iKz+ln/Sd8Fk/4l/5J9Jaf+TZ+ePWHwqKaWIhssb4yRcB7S0kc+q8a7ddE6K40eL0ouU1xppnS+a8322uW8R4vVMeTZj/AAJP7Ty9hsfSreAxHUXomdU/Cf36KuMsddamI1x8YenNuH8BVFzR9XP9Y3zO+8PTr2r0zTD9Vf0xqq+PP9+rzy+/1lrROun4cmlCzV5kCoEhQJBUDJfIkKBucp/bYup/slaeTbVT4TwUcx2ery4r+uyc0ICAgICAgICAgIOVZ08pVXXH7pi5nMNoq8uEOny/ZqfPjLTKkuJBUDIKBK+Rvo8217WhvCNOyLXMYvpzq/GZ4iI0aY9FGcusTOnR7s+/Cv8Axs/TCntXEb49Edm4fd7triR+kMMbUgAzU1+EAG+3j+kWd2K1f/mYSLsf2p1/fmq2f4uKm3/zVq+3JTgVgtlkomBcIv4/Cy3fPSbud2yNPS3TrC3af5mC0f8AdH25x7sar+Li9P8AzX++0+ypArn2ykIMgVAkKBIKgZL5G5yl9ti6n+yVp5PtVPhPBRzHZ6vLi6Auxc0ICAgICAgICAgIOU518p1XXH7pi5nMNoq8uEOny/ZqfPjLSgqmuMlAkFQMgoEhQJuvmRYslYkIqngXn6upGwQdwf8AdPbcjtC0csv9Xd6E6quLPzGx07XTjXTweHHsPNNUyRfdvtRnnYd3o1HYq2Mw/UXZp7u7wWMLf661FXf3+LwBVFhucqYlxeqZc2ZL9W/zX8V3Yf2JV7LsR1N6NOqr4Sp4+x1tqdGuPjBmjD+L1TwBZkv1kfmB3t7DfssvnMcP1N+dGqfjBgb/AFtqNOuPhLVBUFxIUDIFQJCgSCoG6yl9ui6n+yVpZRtUeEqOY7PV5cXQV2DmhAQEBAQEBAQEBByjOvlOq64/dMXNY/aKvLhDp8v2anz4y0qpriQVAyUCQVAyuokdBy1g8LaIMnDduuB0d42zsktaPOANpb+CwtFNjRc11/v5YGMxNdV7TRqo/fwpFZTPgmfE7R8TrXGm7c4dYsVg3bdVquaJ1x+6W3brpu0RVGqVqxoCuw2KtaLy0+koHNuf+9ndRWtio/ysLTej+1Ov782Xhv42JmzOqrV9uSoArEbCV8zAuNR/H4W2TfPSeNzuAGvpbY9YW5c/mYPpf9UfbnHx8WPR/FxfR/5r/faVRBWA2GQQSFAyBUCQoG6yj9ui6n+yVpZRtVPhKjmOz1eXF0Jde5oQEBAQEBAQEBAQcnzt5TquuP3TFzeP2iry4Q6fL9mp8+MtICqa4yUCQVAyUDa5aw3jVVHERdg8OX+wcnabDtVjCWOuuxT3a58FbF3+ptTV36o8WzzVjbjXsMJ0onWZbcXg+H2abPYrGOxUziImj/jj38lbBYWIsT0/++HdzerONO2eGnxKIeDI0Nk81/FJ84N2nsXpmNuLlFOIo1Tr/fZ55fXNuurD192r993nyPiAZO6mk1jqRax3bYG7tFx6F5ZXe6NybVWqrj+XpmVmaqIuU66eH4anGaA01TLCdzTdh/Ew6tPo06wVRxNibN2aPTwXMPei9biv90vGCvB7N/k7EeBqgxx+rqPAdfcHfdPp07VoZZf6q90Z1VfDz7lDMLHWWulGun483lzDh/FqqSMCzHeHH/YeTsNx2KvjsP1F6aY1T8Y8Htg7/XWoq79U+LXAqmssgVAkKBkCoG6yh9ui6n+yVo5RtVPhKjmOz1eXF0Nde5oQEBAQEBAQEBAQcmzv5TquuP3Ua5zHbRV5cIdPl+zU+fGWkBVNcSCoGSgSCoF2wj/L8LkqzpNVWEV+QG+x/wC3rXsfxcLN2f7VavtzY9/+TiotR/WnX9+SmX7etYzYW/JdSyaKfDZvFkaXR+a/jAecaOHatbLq4uUVYevVOr992TmNE26qcRRrjX++ytVEUkEzoz4MkL7XH4mnRw/YrKroqtVzTOuJadFVN2iJjVMLVmRorKGDEGDw4xszAcgvYjsd+xutXGxGIw9OIp1xr/fpPsy8HM4e/VYq1Tq/frCoArEa7IFBcsU/jsMjqhrLTXEluYW2/wBrOW3iP5eEi7H9qdf35sax/GxU25/rVq+3JUFgtlIKgZAqBIUDd5P+3RdT/ZK0cp2qPCVHMdnq8uLoi65zQgICAgICAgICAg5LnfypVdcfuo1zmO2iry4Q6fL9mp8+MtGqi4yBUCQVA2WX8NNVVRQ/dJ2pCOSMeN6d3avbDWeuuxR3d/g8MTe6m1Nff3eLb56xIS1Ip2fy6UbNhu2z43osB2FWMyvdO50I1U8VXLbPQt9OddXBW1nNF7MIklbUwOh1kEjdgc5JtY+Yi9/MvSxNUXaZo16XlfimbdUV6tDf90FkQqoy3+Y6P60DzGzT12v6Ar2bRT1sTGvR8fso5VNU2pidWn4JyPXN25aKXWOpabA7tq1iO1vspll2OlNmrVV++6MytToi9Trp/fZosUonU88sDv8ATdYH8Td7XdoIWdfszauTRPcv2LsXbcVx3vMCvB6rJkrERHUGB/8ALqRs2O7b5PTqO0LTyu/0LnV1aquP5Z2ZWenb6ca6eDW43QGmqZIfug7TDzsO74dip4vD9Rdmju7vBZw17rrUV+vi8SqrCQVAyBUDd5P+3RdT/ZK0cp2qPCVHMdnq8uLoq61zQgICAgICAgICAg5JnjypVdcfuo1zuO/31eXCHT5fs1HnxlowVUXEqBkCoF3y60UGGz4g8DhJxswg825npN3HzALVw0f4+HqvTrnV9mPip/yMRTZjVGv7qYXEkkkkk3JO8k7ysifj8ZbERo1AKgW3ItE0Gavl0jpmkNJ/Fa7ndjdPzLTy21ETVeq1UsvMrszFNmnXUr2I1rqieWd2+R17fhG4N7BYLOvXJu1zXPe0LNuLVEUR3PnBM5j2SMNnMcHNPMQbhedNU01RVGuH3VTFUTTOqVuzZE2qpKfEoh90MlA5ATbX+11x2rWzCmL1mnEU+f79JZOBqmzdqw9Xl+/WFQWK12THEEEGxBuCOQjcVETMTpgmIn4Su9RLh9fFTy1FQIJWNs8BzWm/KDtDdcXHWt+urC4uimq5V0ao+sRxYlFOIwtdVNunpUz4/Z55st0Rp55qeqfKYWOdo5jhcAmxsOWy8bmX4ebVVduvT0Yme6dT1px1+LlNFyjRpn6qoFhtZIKgbzJ32+Lqf7JWhlO1R4So5js9XlxdGXWuaEBAQEBAQEBAQEHI88+VKvrj91Guexv++ry4Q6fL9mp8+MtGqi4kFQPfguHuqqmKAffd4RH3WDVx9H72XpZtTduRRv4PHEXotW5rnu4t9n3EWumjo49I6VoBA3bZG7sbYdpVvMbumuLdOqnj+FPLbMxRN2rXVw/KrArNaT6RMc9zWNF3PIa0DlJNgEimZnRGtEzERpnUuWapG0dDT4bGfCeA6YjlANyfzP8A2bZauNmLFimxTrnX+/WWTgom/eqv1ao1fv0hTljtdIKgW3JFY14nw+XVk7SWA89rOaOzX8pWrltyKulYr1VavuysytzT0b9OulXK+ldBNJC/xo3Ft+cch7RY9qy7tqbdc0T3NG1ci5RFcd74ryeiQVAtuVvJ+J/7bvduWxgdkveE8GTjtoteMcVVCxWsyUDd5N+3w9T/AGStDKtqjwlRzHZ6vLi6Qusc0ICAgICAgICAgIOQ558qVfXH7qNc/jf99Xlwh0+X7NT58ZaMFVFxkoF2ymxtFQVOJygbTxsQg6XANgPzP/Zq08HEWbNV+e/V+/VkYyZv36bFPdr/AH6Qpkk+25z3ODnPJc5xO9xNyVlTOmdMteKdEaIj4QgSDnHpXynRK2ZBoGvmkrJLcFStJDju2yN/Y257QtHLrUTXNyrVTx/DMzK7NNEWqddXD8tLjOIOqamWc7nu8AH7rBo0ej97qliLs3bk17+C5h7MWrcUR3cXjBXi9mSgfakqXRSMlYbOjcHN6xyL6ormiqKqdcPmuiK6ZpnVK1ZygZPDT4lF4sjQ2TzX8Unzg3aexaWY0RdopxFHfr/fZl5fXNuurD1a41fvuqIeOcelY7X0Sy2xzj0qDRK25UIOHYn/ALbvduWvgdkveE8GTjtpteMcVWBWM1WQUDd5N+3w9T/ZK0Mq2mPCVHMdnq8uLpK6tzQgICAgICAgICAg5BnryrV9cfuo1gY3/fV5cIdPl+zUefGWjCqLiQoFwoM9yRQxQ8VjcImNYCHltw0WvaxstCjMaqKYp6Or6/hl3MrprrmrpT8fo9H+IUn9JH+oflX12pPye/4fHZNPz+35T/iDJ/SR/qH5U7Un5Pf8HZNPz+35eLGM5y1MD4BC2ESaOc15cS3lbuG9eN/MKrlE0RGjT9XtYy6m1XFc1adCtArOaLJQJBUDJQN/gOaJaSJ0PBtlYXbTQ5xbs33jcdOX0q9hsfVYp6OjTCjicDTfq6WnRLZ9/j/6Vn6h+VWO15+T3/Ct2THz+35T39v/AKVn6h+VR2vPye/4Oyafn9vy+NbnOSWGWIU7GcKxzC7bJsHCxNrDkK872a1V26qOho0xo17/ACfdvLKaK4q6WnROnUrAKyGoyCDeZM+3w9T/AGCr+V7THhKjmOz1eXF0pdU5oQEBAQEBAQEBAQcfz35Vq+uP3UawMZ/vq8uEOny/ZqPPjLRAqquMgoEgqBkoEgqBKgZAqBIKgZKBIKgZKBIKgZBQJC+RKgSCoG9yX5Qh6n+wVoZXtMeEqOY7PV5cXS11LmhAQEBAQEBAQEBBx7Pjh9K1evLH7qNYGMn/APery4Q6fL9mo8+MtDtDnCq6YXdCQ4c6jTAyDhzqNMGhIcOdRpg0Mtoc6jTAkOHOo0wMtoc6jTBoSHDnUaYGQcOdRpg0J2hzqNMI0Mg4c6jTAnaCjTAkOCaYGQcF8/A0JDgo0ibhQN9ko/5hD1P9gq/le0x4So5js9XlxdMXUuaEBAQEBAQEBAQEHxkpIXEudFG4neXMBJ7SFE0xPc+orqj4RLHiEHQxfpt+CjoU7k9ZXvn1OIQdDF+m34J0Kdx1le+fU4jB0MX6bfgnQp3HWV759TiMHQx/pt+CdCncdZXvn1OIwdDH6jfgnQp3HWV759TiMHQx+o34J0Kdx1le+fU4jB0MfqN+CdCncdZXvn1OIwdDH6jfgnQp3HWV759TiUHQx+o34J0Kdx1le+fU4lB0MfqD4J0Kdx1le+fU4lB0MfqD4J0Kdx1le+fVPEoOij9QfBOhTuOsr3z6nEoOij9QfBR0Kdx1le+fU4lD0UfqD4J1dO46yvfPqcSh6KP1B8E6uncdZXvn1OJw9FH6g+CdXTuOsr3z6smU0TTdsbGkcoaAVMUUx8YhE11T8Jl9V9PkQEBAQEBAQEAoOe5Q7p8eIYpJh/FuBjdwxo6kyFwrBE6x2Rsi12gu0JtYoNxnDNzsNqsKhNNwsOI1HF3z8Js8XcXMDTs28Lxid48UoNhnLMDMMw6pr3s4TgGjZjvs8I9zg1rb2NtXDWyDxdz3NwxeidUmHi8kUz4JYC4u2HNAO8gcjhyc45EGOF5tdUY1X4WyACLD4mvkquE3yODSI9jZ03u1v90oK63ui4nXSTfQeDuraeB5jNXNO2Bsrhv2A6wI3HffUXAQbTKWfXVVa/C8Qon4dXtZttie7hGTMGpLHWF9LnlGh10QXdBU8Mzg6fH6/BeLhraKBs3GOEuZC4QnZ2NnT+adb/d86C2ICAgICAgrGQM1nFqapnMAp+L1clLsiThNrYax23ewtfb3eZBZ0BBWMoZrOIVGLQGAQjDKt1KHCTb4bZc9u2RsjZ8TdrvQWdAQEBAQEBAQEFO7rOYPo/BaqRhtNOOLQch25LgkecM23flQc+zRhkWF4NgVZSTwvq8EkY+ZrJmkyCZwdM3Q3cOEIb/aSgtndbjbX5c49TEuMHA18Dm7w3S7uxj3HsQeLPmIDFG5ZoI9W4tNFWTN3fw8bA94PY5x62IPRlVww/M+OULvAhrYmYjDyAdKRzXc5/qIJ7jVLximxTFZWkOxislcL7+AaXBrfNZzpB2INRhEGZMuNkpIMPbi+Hte6SGSF2zK0OOrS0XdflI2TqdDzBuss5uwfFMUhNRRSUeLUzC2FtW0tds2cXNYb6mznGzgDYm3Kg6Og5Zlr/rrHf8Awo/ZpEHU0HNscwvEqqvq3Yjir8Hw6IhtGykqmQOqBreR773G69j+Ic2oeHudY1LHjtVhLMVdi9HxXjENRJIJnRvDmAs4QX2vGPLbQbtUHjwCmxbFsTx2lfi1XS0dHXSAcXfsyuJe8MiY86sjaGbhodr0B8stUmOVVdiOAyYxUNpcNk2n1bD/ABUrX/y4hKTdotdxOp0tuOgb/udVVbTYxi+B1NZLXR0jI5qeaoO1I1rw0lpcdTo9o/Lpa6Cpdy/LFbiEOIf5nVUFHHXy7EdC/gny1BDNp7379kNEYA3XvutqFsyZmOso6jGMKxSc1ZwmHjcVURZ8tMGhx2ucgFu+5uSLmwQa7K+DYvjdN9L1GMVlC6oc40dNRv2IoGNc5oL2f6guN28gak30DPuMirjfmQThstWytdwlrMbLOOEuRoAA52t7W1QfP6Eq3xOqcdzLNhtU5ziKamrY6eKnbchg2Q6zuQ6EGxA36oN53Gsfqq2iqmVVQKt1FVvgZVdPEA0tcTy7zrvsQg6AgICAgICAg5VnOl+mcy0OEvY59Fh0Tqms8Zoe9wFmXHXEND/qOQb6o7k+XnMe1tA1hc0gPbLLdhIsHC7943oNH3JTJLhuJZfrWuD6J81MdoEB8Em202J32dt9hag0ncXoaqbEnPq2Fv0HRmgjuCAXOmlO0Ljkbtt6rINh3dqaeB9DilK1xkMVRh8pYDcsmieGHTXwdqQjz2QXvA8AfBgcOGxyOglFFwXDR3aYp3sO1K22oIe4uQUbLfdFlwqIYdmGCrZPTuc1taWmZtSy5IcXnVx1tcXuByFBg2uOYcewqsoqSaKkwouklrpo+D4e9iIm/iF26C9/DcbDlDr6DilRmGLC844zV1MNQ+KWniiaaeLhPC4OmdzjTwCguWD91LDqupgpY4K5r53hjXS04Y0E/iO1oEHPoZMKhxnFn5oimfO6oPEnTxySxOp7u2GxtYCDps2uLdRug2WSpozmwSxYe7DqWooHx0UboOA4VrXAmTZAsC4skPPYA8qCw9yuNwxHNBLSNrE3EXFrjal1HOgzyMxwzJmhxaQHOpbEjQ2Y/dzoMcvRuGcsdcWkNNJT2cQbHwINx5UFW7mmd6fCqetgxKOeCKSsmlpqkQueyQmwdFdo0cC0H83JpcNzk7Cp8Wq8dxeeGSlgxWmNDSslGy8wlgYZCOTRrTyi5PMg8uSs7xYLRfQ+Lw1EFTROeyEMhdIKthc5zeCI0O+2thu132DHueS4jNTZtnZDJT1tRK+WCJw2XRyuZIWMG1ygkDXlGqDR5Kq8swUjW11BNV4vd5npp6WSolml2nWDWuBYL6DWx59UFs7hfCNbjUU0JpphXmR9OW7PBbYI2RyWBa4C3Mg6kgICAgICAgICAgICAghzQdCAetBICAgICCC0HeAbbvMglAQEBBDmg7xfrQSggtBtcbt3mQSgjZF72F+dBKAgICAgICAgICAgICAgICAgICAgICAgICAgICAgICAgICAgICAgICAgICAgICAgICAgICAgICAgICAgICAg/9k=;" vertex="1" parent="1">
          <mxGeometry x="1200" y="532.25" width="226.51" height="223.5" as="geometry" />
        </mxCell>
        <mxCell id="juRgAYWE1Qn_RtXxcc75-53" value="" style="shape=image;imageAspect=0;aspect=fixed;verticalLabelPosition=bottom;verticalAlign=top;image=data:image/png,iVBORw0KGgoAAAANSUhEUgAAARcAAAC1CAMAAABCrku3AAABJlBMVEX/////mQAAAABwQcx3RtN+TNttP8mFUeJpPMV1RdGCT996SddnOsOHU+RrPcd2RtL/kQBhNr3/lQCPWOzt5vv/kABBQUHo6OiRWu7v7+/n5+f/48nMvutdM7gSEhJ7e3vUw/X8+v5wcHBUVFRlZWXb29vLy8v/yJOhoaHCwsL/+vb/8+bXxfl1QNXd0/Oqltm0neWsrKyOjo728vzCrewkJCRXV1eFhYVJSUk1NTX/69d+R9+MUe5vNtZ6Qt2ukeaaduHm3fhfKcdrN81XJ7odHR21tbX/u3f/r1z/27f/0qL/nCn/pkFpKtWWWfjAp+6MXeOnhOmXceGzluqJYtmihN+EWtbJt+6be92PbNWDXtF6TtBSHbpJBbleLcD/smD/pEX/wIQqGfCNAAAKeElEQVR4nO2cCVviSBqAywDaagvpNMhwLBAM94ZFDgFZESajCKEXT9RmZtD//yf2qwpHyEEfajMW9T7dpjk6T+r1O6pIKUIMBoPBYDAYDAaDwWAwGAwGg8FgMBgMBoPxz8Z7H47FYvjvt/k3/LGgtOoxvAWxL7KBZrNhw38t+Z931WN4C8InHs/uFNeEnSlbW3uLfJ7y2xxKvTgBkxnXTIyGyQuY+Uyzlxjx8k0xFl5mYij14nmpGCq94Prys2J+08RQ6mXbIMboZWfRy97nxeL7mVYvnpeJodbL9va25sVWzNYyMTR72f6xErMghmovTptMshWjr74UezGK0c18mxiTmL018WIrpjGIhfOxyyVi6Pay7XRaimmQ1fJVw74pUe7FRkxD9F7F0F3D1K1nEUOrF8eiGJOX/JeCzos5Yqj14rAOGPxRjLzbEEv3beLFrsTQ68VSjDyIxWJlVxOPWrxq2Hdrir1YiHFekoJ73bwq3BRudlyW05g92r3MxMy6tTwU23dh1MKfazaby+Z3lHr53WEpxjkUw18G4MXlap6cnDRtxOzR7sUoBuKlFGsTL7jQDBouOzHr4WUqxjnS6ossX4twFC8XU2l94sUoRm7dnJ5CeZFbKH/TFocNl8taDK1eNs1i8G2k4fXDaaFQLoOX8pcYgnjBt5AsMolaLyYxyvDuvu0tieQNOF4GXvGy5c2XW5cWYj5T68UgxnEHIxVL7XzsvlweyNe40JR2rrAn75VZDMVeNvVesIh84fp2OMJLAXl397RcLp/KO9dXAy9qX5qaEs1e9BEjt0piuPBwO5rUXxmmLyey6/L6bpAHLy6jGKq96CNGvkc4j7z5MM6jwQDCJZaf1JvThqkpUevFbRDjGHlR+L5dEgHyHvyPUikP6+p80zy9o9eL25BJyg2+rTRsnd7cFCBaBoXC6dXtpevSW2o1Fu8pbVHsxe02inF48uhOcS5ui9ltDtB9w3yLYItmLwYxyp3YHm17PB7nfHMMtKnSULbYAkKrlw9TL3MxDkcYFZTFWwQn92hwYnVTiVovFmIUWE2PZL0Y+QF69K7LQgy9Xj4YMwnEQHQoCzeVIIJky9uQlHtZFOMYekuPsmcmRjlFeYsNeJR7MUfMtlJAYXl278Qp44+orMVQ7MVNxCyUGIfsRQ+KZ7LTQYYZjWyz1YFWLx8/WonZxpkja/cIPDJkVcvayw61Xj5oYkxNCSZ3pxAwOGLkMirLdrupaPXy8aO1GKUFkzscMR75ViztTr2YxOxR7eWDeRqjQGv+nXx+h5v27L61UQzNXizFKMNSCQeMfIfyHvttZjTnkY2YMroHL3gVKduLoTpe5k1JL2bk9d46lAfcmKz3Jbro97IoZlphYNILDbuwbLM87V4sxICXloK9KIYdvnox1HuZ1ZhZJkFHaofDXuzFejcVhlovnxbE6EuM8kDGnH+Ul+x93qLTy59zLRZiHF8fHm4VedlOVmq9WIlxTzLp66PieBw6dDf0TfM7er3Yi3HnReURlZVle58p9vJJ72XelBRFmXjRMsl6iy/NXj4tBswkYh4fvxIv4a+zVHKaU4lqL1YR81gSRYS9IFH0bmtiPGYx6+Jl9qHD0It/HF8ZhUvQqpXJJhBziaHbizFiII3+/tpGYYeijPIoP5ptGjKK2V0nL6TEbCogJq9pURx2Yqj3Yi4xm8qojdpeFPYos11D5uK7Q7sXUyaBmGEe3uJx67ZTmcTQGi//WiLGrTjC9w63bg+IeRpDa7zovFhEDP6juz9rIWYdvBiKr1u/VDJnkpNuL98Ss2khRvc5Fb1evkfMpm0mUezFusQsjZj5D+TQ7OUlYlw0e/l5Mc618WLzaYydGLq92AbMEjHa742h3MsSMeZtZnoxtHtZTCXNzYfZ2tq4nWouhlIvf/0x528Tij2zX49IpZf2f+woYLSvy6Hy92MyGAwGg8FgMBiMtSPgJ1+D2g+Q+wO6J4N+v6h/q98/fTnwCy9wNfgrXBIOae4QPzrk6njIgSM4BKMcx0nJ2TsTRXhcSePXo/vUi8lwkSockhz+iuIcl4GD/0xCqMZFIhHubComUeHgCY6LB9bCS/wgvg9JE6jX4EHgTKoUEZaVRudcVRTRYSSuKQjuc/Eg2JFwYNHvxV8pnpMQiUfATjJyfiDBkItcAlXrpMZE98kBMqxIjoHIgeYliJ8PJPBzwURiNVf/dmQiGRSJIjxuSJh0JVg8g6g4gHFDxdGX1yNuUoLPk8RLoCaR/5XAtYnjjigzUwUNEodwqKSRGK9BCp1DOsUhCGCw8eR0uIFKTfe/sJcDeA+kWQLcVJPn+zX/r7/4t8O/D6MjieSvR1GwUgUdcZQgzSlTgziIVCedmcMaAsUqEFjwEqjhcAtCRaKIDFdMJg9JIkm1QAbnklRHhxUSJv5MtBbhoiR/NC9JDhPUewkm4RSZTLISX+EwXp0oGSi3H8RVIljkSM0NVqftJhDI7Ee0Rq31q3SxeGTwksHtHBr40coG8QacVaSjI6kGNQWSJ1PDY4MCcwTxE6xp/SdJuhU2OCk1h5zf4CWdwNBUX5JcOgAkuChuwNUIVhGsSxUoL4EaDiJcfLR4OeckbeTVabzgfgTdK6FVluLhaobwJlS1QoIOIpA4EqelDMx58bPQfdOZTJGTJjlVJY8PK9w+qbsoXk+gRB1OEMdT4nOOIi/+2oE2KSGrozRXJxFS5Or4IEqk9JzNOnVcq0USPBGH5VOGq0X369CnE5VKNM7FKZoBJyStdqCglMaPisRS4mjScpOSJBV1w03EJSlONKWj8HTm6CCTxMnljx4cUNWlGQwGg8FgrBHZbHbVl/API5vrPXcugHEndbzqi3kBodBrni3XvVB5n4/HwOH53UZNtu97zr3a2bpPPl4gbGAE4fVO/asJqT419UqXn/L5VLUPKTS+UImad+wFi/E99V4l4EPd0PFxLpfLZnO5ripsCOo79oJyF4LgU3uvPYSeb0O4eLf1BZPrwBD4p1czkyMn6vo2+OdXOuOqSOGg96md0Mu/v9lQR1Vxj0vxG77eyy9ttYT6PFRJHz9+WdDA5GWMOzT4yI6FDfU9T2A0ch0eNxBeUDvdn1WT63ZUnofujKctuSdBeHrNK1wV3T4xI/C+/rh7/KMJlT3ujvs8PgPf75LTbVCQRoTcM3yzyXQMomac+oFakw2lxqqgBRzf0ZInxb/vLq0n1JlMVHHU8Go/1Q3lli4AYaIS6vb6KlQmQZvgXnQnr8BzdIQLJtt9msQMGSTPqxedTq97nDPpgZnbcQivEFVemMnUzYJCPP9ES7hgst0LLSHmbmDgGyosj59TU54744s+vCaQ12Zv7euaWcfHv/9mtAA245ub0YZM/OiZrQ2necf3ezoRx31fanVDeCNgaqa1lu9F4NXxYnfv+VLveglgR67XUYXvUkOKUM+YMyF6aq4BPHWFlTYvLJED600fdPQfnuy8d3Kh3vhJ5X28IJgKDm7kT+PUT0+O3zkwQemlOv0N3rfARn+c6sHkZtWXt2LIbGUOns+s+pIYDAaDwWAwGAwGg8FgMBgMBoPBYKwF/we0aCh/QlgqigAAAABJRU5ErkJggg==;" vertex="1" parent="1">
          <mxGeometry x="1580" y="534.25" width="316.77" height="205.5" as="geometry" />
        </mxCell>
        <mxCell id="juRgAYWE1Qn_RtXxcc75-54" value="" style="rounded=0;whiteSpace=wrap;html=1;" vertex="1" parent="1">
          <mxGeometry x="160" y="476.78" width="800" height="313.22" as="geometry" />
        </mxCell>
        <mxCell id="juRgAYWE1Qn_RtXxcc75-59" value="" style="rounded=0;whiteSpace=wrap;html=1;" vertex="1" parent="1">
          <mxGeometry x="153" y="947" width="800" height="240" as="geometry" />
        </mxCell>
        <mxCell id="juRgAYWE1Qn_RtXxcc75-60" value="" style="shape=image;imageAspect=0;aspect=fixed;verticalLabelPosition=bottom;verticalAlign=top;image=data:image/png,iVBORw0KGgoAAAANSUhEUgAAARwAAACxCAMAAAAh3/JWAAAA8FBMVEX///91nD5LYSy3yp12nj5ZdjFvlDtIXStniTc3UQbg49xsli7z9u5JXitqjDhloABvpSRxmTdspBxpohRxpimtyos8VRPn8N2DsE3x9urV4MfL3bbIzcBwmTX6/PiOt1+20JifwnaXvG5DWiLf6tK7zaOXs3Le59TA1qd8rTuSuWSlvYWeuHzn7d/U48WmxoFRZjO6wbGNrGSswo6EplVnkyJdckCwzJC91KOesYR8oUmww5aHqFqRpXd9kWLI27Juh01/jWyapY1rfFXJ1raBlGfM1MFme0peeDrU2M+muYypsp6GoWBgckdfhSSItFStVpp8AAAL00lEQVR4nO2dC3faOBbHeUyn20IjIZmCQzAYTAYHYpKQlDRJy8w23e50tsv3/zZ79TI2YAXSzlLg/s9pDwFb0v3pvuwEyOVQKBQKhUKhUKj/iy5/H55vew0/qS4v3r5o3lw/lre9kJ9PJxdvC29e/JKvlEqnv217MT+XwGsKBQkHVCnlexheWp5CE8MBNUunx9621/UzyKBJwpHuMz5493kdo0nDEe5zc/V42O5z8qqQBUe4T2l8yNn55K0FjnSfu97BFven4ICguB9ve5nb0RpwRHjd3bvbXukWtBYcWdwPMDuvC+cgi/v6cGR2vj4o99kIjszOw8Mp7pvCEdnnrncg2XlzOHlV3A8hvJ4FR2bnA2gNnwkHvAfhHCqcskwbCGeFTv7olioP4+gS4Szo9T/fve2+/DVfaZb+8RLhJORdfnrbBRQvfxUoEE5Sr19JNAhnlV6bW38IZ1kIxyKEYxHCsQjhWIRwLEI4FiEcixCORQjHIoRjEcKxCOFYhHAsQjgWIRyLEI5FCMcihGMRwrEI4ViEcCxCOBYhHIsQjkUIxyKEYxHCsQjhWIRwLEI4FiEcixCORQjHIoRjEcKxCOFYhHAsQjgWIRyLEI5FPwBORegG4SRoNOFf/u7u+uHh6vR0OBg+Hh8fP4J6xfu9+cCLteBUjPISh6AxHIzH98ViTwhwDE6vHq7vxPtuSs3mzb58nMPTcCSNIdBI4NBIhhLJXb6pyZn8cyhwfnlx8e3Lx88f3t9LLMXieDA0XtJMEkkm58OB86ZQ6EoVLo6ASCULyaHCMYccrVe+DhLOm6O12CAchINwEE6mEI5FCMcihGMRwrEI4ViEcCxCOJnyyv/6G+BUBr3Hx9/Oy7v6OV5e+fy3R3FP5v7zu0L3h8MpgsS9n8djYLRtWzfUn5/vi3Pdf/hS6L55+au44/cD4FQq+UExqcHVtu3dSCevul8+3PcSBrz/AnCur4Yfut8Hp9K8Ox0nyYyv8s2bbdu7kcQnc3WBTzHJpwhR1vseOJVK5eE0OWRvfJpvViBBb9vejaQ/tqzb/fi+mNZ7ccfvOXDAZa5S0QRk7prqluFOwgFzuxcLfGQC6m4Ip1K5hmBK+czwen4zdUfhSPe5+Pg1teXF9x8vBJ/14ACDh+E4FZ/F4UPqNvPuwpF83qXKlwivz8DnhbiV/m8bHHgdgilNZnCVX7gBv9NwFJ90+Sr2vn74/Wow7n0sZMFRlSl5Uq83XiKzB3AKunylJO3+0n2zAo6oTIvBJMg0V/3WZg/gCD6FL4vlS7eIKTiVyt1SMBWhOGX9PmvH4LxaDUfyWSrvxXuToY8UmYVgEkcki9OSdqsJ/LOb4ToqvBbKl9TXj++63aNm/np4v0CmVxxcr0g08wgsPWzb3s3k/WXDI/h8XuZz/+E/g8XngMxDpZlNBtBc7d4fpDyBZ0X5WqWsFByjudlBNFJ/XVjxyPJ1nw3GXDllq3mzw9+q5j2FB8rUYnmPfSa7OMVes8NohJ7Gs6p8pa+csnLNjqMR8i4LT+F5s1C+Fq6c9haNkHdpT80q/cDVV09cHwwe8rbitB8BldLT3qP4LF9TrkazZ1/Qc/lk7hF8jtZAU9o3NLnEF1Taks+T95D3Eo3Q03iegrO3aKSewGOH09xrNEJWPNYb7HuXhlfp8l0mnmw4lZtD+fbuy28ZeLLgNEuHgkYoA89qOIeFRmglnlVwDg+N0Mly7lmG07wZHCAaoSU8i3AOF43QSTq40nCapUNGIwR4uivhAJoD+YJKmxJ45nAqiEYrxhP/Uu/gAyopjUfBgYDatT/z+5t18u1VV8JBNKt08ulV96hZGiOalTr59F/0mmwhGhQKhUKhUPss7/h4s6vO4Dj4EfMGx+u//y+qVhs/Ys61dD5tT9qReuNdjZDRRic7hOdy/WrVIAqq1Ug/dKvV/rrDhISsPyVj6x/8fYrqnDPGOKuKDrlGWHWj00Pq5HJTwg1Sn/NQP+wTsgQnmExqq4ap07XtbXDH4dONFvlcVQll3AkZp4xGz4VTZg41PzsO0dchLUqW7plNCVkZEhvAqdMwpPWNFvlMjbjDRzXPK4MDkdvnwhEclEME3KF6W8t0hQlTzr8TTkB4f8JIHMZRpP5XO+JGUcIz4Wl93HkUS29dLX4t58mHXhCl02eDONw8M+nkUnDEweZaNB6oFg+ux1Jwppy15bNtFs5YR53Ded8cGa+4wblJSYBvPoOCE9toUYey8jmhZ/rHGSSrPieci1xZbokHjlpr0CGEcELkwvrwAjwW/8lX+1QcSaoy07qEnOV8+eJtYiaI3iiXVAyn1pIHz+RQHiEtTZCowcu+HPxWwykTOpOvh2xyy5iccsS4iKpoJtfIhMMEhDkOI2qMczVDPVJwuLbRt78l2yXUl56qi2qLOm0xDnW4n6PwACJcejF4GGch5Q4RBk2dUAqCXrzY4lSgoswRS3QZ9c+4HCRBJ+K0lZ7bwJlCKgIjGJU51WNmp9qMi8FdyFBcbMuoLuGI1Yo9d2FjakQBdyQvyNWEQkpzyFTD4QpORKhaoNzaOqV9bePCihYEEVUTCzcODnBYOA2iFkA5I34U3FKHStc9a4ktiMDgeebzqfTmEadhw/OCFqOhhAPMWo2gAcZQbz7TYgbQcGoQbhM357aZIwxZgjODfALFP5hB5ZBwdC6ZcsfLMTWEjqrQhxO8PtfHiRk9T/gabHXNcxuhdKO6sLEfRB2YMO3LaXlUuSil2ooWpaGnKaltj/RU2spbNg+OWy6rqgt7oF49o2LZAIfJauuFTpzMIH7JQmHVcFomq4Jv1ZfhwK6HZm1qJRBXYrvOeEfEU6iOdBNr9NVUcc6pMjZR5srV1I2NPtXZa7VMQofR+3oBekCo8LqHCClNZK5oXgIiwqRb9rlpBWoydAQcz5gXe0uH8pVwPBIXGlmPF+FU492o6W0CXxKbQcTYERccQp2FtGADg4RxwoLky3VjIyzXt8Axp3kqIOT6lF1BItIknAC2XqQ7x9gLQ6sNgOWbywBHDAM5R8dyI1FMs8IqmNestjBqEQ5sl6lZKiHDbojqCrtUFmjZLbgSU1sL2UCskTkpOJ7ytAQcXcpFcsxmExEnPBPqmFLSoixn4LSTcBoE5oXulhk40FowtWpdKoTk8mHOzjIcCJrU9sZw4onAaFjEHE5VwyEmbxk4rjixqrJpi81gGpUHJ3qNdAlOisGacCCKKZOiKt9nwoHkVK+p5/WMMIXOJ21m+hdP9mKr4XiOs+A6Co47X7ovqgPA0RBnMhD9OByhN3aMeWEuVIkAuh7PZzPFjHZcDTkFZ6FDXA8OBHE4U2qFuihnwKmZvNLQDzos7s2DuE3qM3HSajhQaOeNzu0ohgP+oB0PfJEqiGW1AkdgaXCqr6XaMZw+Z5H2FhemcBQnmE1hrC7knDOTZFTGXg/OKFF5GlxWmCw4rs5dNX0hVuWJRA9bLNMGFDbmZsLJdcBaP/A8rzHjouHQcKDNqcv2qK4aA5hv5oqmgUo4ApYsm1NTygURJ9RJUniRvq6ChkTVV51zGjJtyoLnyE7Wu2XBunDK3EwgTnRkbGfmnBlls3a7A02hgAOXAk5VKZKTsNAf1aHJauSy4eQ6xGEcWjTRLQbzJrADLeTZ6AxaPZlFYGzKwZ2Yrm9gGhejk9DkHNWqqOos/EnHIZjAz9rtFtE5x4Xp6qGwagRD1DvgQHy2Lpx26jJ/InezxbmGQ7iGM+Mi8bqhvGBwbrloP32wj0vJntOtE/kDlY4Inq7DrEFI6nq/QWVO52Qi/BvaW1WnJupsoqtWlchjgjZXnRHUJZiMhG7I9M7lbkmc8WqEGjMCOQqpgymRGUg9hK5frFfdP6qbWzQu4ZlwfD95beF2fDh14uvDa52O3nR4SuaAxsgfNcTzMFvfN9JHBe2Rb+48lTu+5hrJg5NSx3l6xo5GV57C2NO4m6pN/FHfyzU6Hd0iNNTgI7M4sVhTnb2R3zHF0uvLA2FalXyikd+uLc1QNefCKMmLPxQKhUKhUCgUCoVCoVAo1I7pfxhDqpQzwKlTAAAAAElFTkSuQmCC;" vertex="1" parent="1">
          <mxGeometry x="163" y="480" width="128.36" height="80" as="geometry" />
        </mxCell>
        <mxCell id="juRgAYWE1Qn_RtXxcc75-61" value="" style="shape=image;imageAspect=0;aspect=fixed;verticalLabelPosition=bottom;verticalAlign=top;image=https://miro.medium.com/v2/resize:fit:360/0*QjKNs9dEShlQ39VI.png;" vertex="1" parent="1">
          <mxGeometry x="230" y="990" width="219.13" height="140" as="geometry" />
        </mxCell>
        <mxCell id="juRgAYWE1Qn_RtXxcc75-63" value="" style="shape=image;imageAspect=0;aspect=fixed;verticalLabelPosition=bottom;verticalAlign=top;image=https://encrypted-tbn0.gstatic.com/images?q=tbn:ANd9GcR4xhGXHuaCUzQ12BLFECf8BMUQoCKEyWi5EoDdoGvcryasvRB05fLyJh7zmkXJmxXT8eM&amp;usqp=CAU;" vertex="1" parent="1">
          <mxGeometry x="700" y="977" width="184.05" height="180" as="geometry" />
        </mxCell>
        <mxCell id="juRgAYWE1Qn_RtXxcc75-65" value="" style="shape=image;imageAspect=0;aspect=fixed;verticalLabelPosition=bottom;verticalAlign=top;image=data:image/png,iVBORw0KGgoAAAANSUhEUgAAAOEAAADhCAMAAAAJbSJIAAABGlBMVEX4+Pj/////jQDd3d38/Pz+hAD/9e3+9uj/kRH8/////v////0aKzv19fXf39//jADw8PDl5eX/mgDq6uoAGi7+lgD+//r+mgAYKjv8hwAAFSsAHDCjqK7//vn8kAD+jAgABiIMIjT/olD91678njf8rF78qVH+mi370qT+79v9/fL659D7tW/+o0iOlZsAESgAACTO0tU4RVL94MT937j/sFD9ypn+wI39vHz9liD8smL848n87eP+28T5y5b+2K78xIX67c/1nCz7yIz2lhdtdX57g4mdoqcrOkk8Slf6pkJQWmMAABhfaHSvtrq6v8KFjJIAECMSIzp3fIL9vGj4wHb3zpL8sEP4t1r6xn77oyP+58T7ohH/zKfpY+yTAAAVB0lEQVR4nO1dCUPaStc2IZFMQkgQCAw0iRRlE6WIdaNXaa37dbm39nax/f9/4ztnJkG0WhJx6/fOcxdlTZ6c/ZyZODUlICAgICAgICAgICAgICAgICAgICAgICAgICAgICAgICAgICAgICAgICAgICDwPwkTYNu2OWU+95k8OIBYNpNOADIA/JlIZ7L2/xOijFs6Y5uKIl1BUWybPZ/9s2mawCKdNUepXYeCb8j8qcI0bTj537AbZZmxn/ts48PMJDImEtB1QyfBLyEkErCDpwKSiT9MXe10wg5IGERyjJbjEIK0iMR+wLMEmOLvRiDJLFyR5z7tyAD1nBpRQ8bEcJP9XnV1DbC6un3ZTLoBPWP4Pjvxhyirnc6M8gO5tRYa7UXNoiqlvmVZlKqqam3U1qtN97pJwkdfvhzNTBrND3VQcvCsm9X5DYtalsyhsf/7soxUrbl2NQmaq4POco7ZRPa5GYyBHdqfLqHhtRpz3hU7YOZ7vub7shc8tizff111rsxRUjKJl6yqIMAgOuAJu/1NCvR87YoPExwieMazfE+m/voCuVLVqRcsxqEAkV+rOqdaoVbKYHzyxtzi/Pxme3O+tjinyTSQrY+vqvM9J3C8AFD056ZyO7IJ7mGIrhBSrVMg4GvAAO1tvdF/N+1IYSBsJd/9tbW5ASxlVFtNtvzFS4k4rhF41RepqUMNBb+xMkctn2kh0GtvJ10eNQIJOyAqiCDEbW7PU3Yh4B+PzjcxXL5YTTXT2WF0SM5TtC+Aam32INajrySSgtx4dgNJgO4a6GFa1UUk6fuWR/2BM/Q46ZdG0UzbmIOxE9yWkR9oHt3YShJuXfpQgihLlCFjytKc5rpGmcF6dANcDmEWKWUyz83pGswEBkED08xk2wcFBYrqXNUFJro0BqCuydUNi9mj5a86oa1mXxJFTpBlm+/rFGzK91RvG/MywyC/Icc/pIMKT6/5GCt9mdamwxdekBSHBA3QUMoCAEWTUlBrjTupDSm6Clya5CZlKQ/daL44iswGwZuAvAaq5YGG0sUmccYK76ay9jZQ+mC+vTCJeykUM1mmoLrjtFUuwB2HOGPt7wZ0l7TaFEOMTKthmvoyPGo2w1QNdHSeeho4Ga0PzoOM184bMkQrbvgsz6GN4EnlJYR+O8ECge6QGmWu4iiJ3kM3YlI0IFjqpK9ZcJFktRHk4lOJZ0/gzITCaiWdtKnmexrddMdxuRuQHCTrFHMFuh0ogZ1+boboZSRsvAxUTL7U9fj6OSJHpDiHPtWnveC5zDObYmCEhGyBBH2NDsClxvUxoxQxZZgDW/RkLwwaz2uKTEeR4SVFCfrrkHRNQFBixUerbsmaZn1o8UzPfFY9ZToKJ9JieTbd1O+voQGQVFKDpIjSGuFfl07bOO14Fpdjp4MLv4hO3jqaxAaHDMGomxrWjepqkKLabNqRfo5ZB9NROKMtdA5y3iERcrQx0DGykp6HJaPalKTRoKPgDCSdfUK7ZG6GuFITzgeK+YVJ2YVwXOa4PHnR+DWvnWLDgidiyPq+jk5qliZrdDVmIno3dILpA+S36hZRblF8xU6kn0SQNosULtlWPSjQ307oREfgOrruso6jlrwj+JhP0nTkrXvd9VgbNDm5DYaAFMkhVRVUn7aJY7iuywQJ5Sb+JEErJ/3oHTkuQomsstJ1lUweKUYAlVgNIobnzb9erNfri7X2oNFMYrPOUZTgQOZjz3LSvOydzlueZtVBm5yHZKhLTdaCg4rakvmwg3qLgz6I88ocso9qjmaCH2UHXIJP/3qAQDEK3YFyGvtTkAry7jj+Czy19qjLftSuYxbrXkJaG3j8owfzoyNoaazn6gP4zIM1z321XoUC23nk/rhpZ7ss2pMGBnvanzyZuQUN1QepceCsg0lT8y1/Azgqw/LqwSna2TRbXSCh2RuYr1mLk+bbtwJK/vb6TrXX6/dWGoP2kaXy/jgmrXOXYXv8oUcAOJ63p8LlB0RfwNYaXZEeQ0uN667LcHuDD5S18jRfttotKegDPGSrY2Q8z6CTdep71kZLfxQt/RWkubahgtKg69EuJT4keDCKZjZxY3wNKZuH/e1BpLboA8CFLN+p1qmMDSFZ3QmCP1B8CFu005lf18ZcqjIYfhP7NE/BkBBdMRhHC4zRp5ut4AVzcndjhvwcBQcruLoi2ez3NyHnpnO3n46BMybCq5/rEjau9eEM/pCPagz2KenuRh2+QlrrPu8811qBptqT9o7toG/P1sNAndvfqm3gbBD7h9baL25meILD1SSGMa67aNzyqTsAJ7HwUdVQivVW8KkJG1bD4afUIpLba8vgtzH1hxLOk+nNupBlyWY2c7WgLaqRQlnUzZjj3wda5G7C1ZU9+tENru8k3oYNP4NLTJI7H3GgiQ6b5xuyfz0Wwruyr3YPSrOzs6XlvS6/6PtLS0t2SDQND06H7+/CI/6u7t5BBz6VOzzv/t6qDRyRkDV0OBo9ciWWqU4l7k+QRQhuHMlBHr83SBR5Srx+I1JkdiulSjEFKBbLpV0UiVLMlWfPwwtw3CmX/06wEGpIU8VS+c0+fL1y3imn+MfKsyc3nfYv0CGdwqJGpm1HYWLM3ldPg9GZQ1zIMTSK7QqWH+ICp436XH1HISM+FgiclIpALVfKlZFn7hif262kigfBG2zkkXsVijCXSs0m4Gn4GHArdTqlcrE42x3H0NFd0lAxLKpbQdZ/z5AxnA0q5N0RtXzWcwIPU/vZTzITINeqcGRYzuWW916dni4dA9fU7CsQ0FkpVXwTDPq7JZBT5UTin9rPpYrLUPHtd4qp8sHS2dnZ6flB5++xDHUH/M1PCmL06II+gT81sQp0cH5Nqh4IEHWTbqz3Hb7QEDldLwwNaXd5PxMKCKQIstMl800q1Tnlr+/nQIbFnMRDxHElVT6XDPMACH4Kv6S7dy11ug0Em3JkB92N/NHB+AUGfh8hstmgjrnEms8LGHVxu0XuTkMNyRx58RRkl0MdPC6mKp/46yeV4gFoJm+12sCsBALrzgLr7K3feCewvpgHipo6IGzRw32EGIwlwDnPU1an0Y+4euR346Vrkc8EmyqdwS+vcqEhgrQqS6liiXvTbqdYPAA1OYOfqbHu5Tp0okN5Co7dY1mVdB8h2kEdT9wa9TGhx+nuyBLfOzhe1fvGYbHInEpmFkixy5XoFHPd48q/XCWXSqnKLnwfyrA81vhuHEd3dNLDiZAVDADiL99IKOBhHPimmm9plkbr0Zq+I8kJmBljqB+CNp7iK6/A0Ujn5eIyewe8DjIGB1tEi+1KPPCSyONVHFui6+vxoBw3JjIjxHZB20cJ0tr4ZekhwSmcpXAGwBCeWCqjsOC3TxXwo2elYgUlaleAmY2fOIeoUeycnNmjV2g8iJFksavG9SrmImMTnYEB5ryKUVD21w0SjaL56mQZgt7y8d4peBjOsNuBqABnoRwUS6+kTIWbJ5ghixsgxOUKBpFO8eQ0jsMBLwq5DWQefcYw5iQuw1y2Tvrokn26Rsj46Sde/bODDogGUCnneHA3eDiowCXLvklBOFcOi2XMcZbK6HJYRpg5RGcDJEuVk+gGCUFx2pOhlmpz3xAr6vPRGbjRPBtLtCOV8fCe/VmWnJQrmNdcpS+fymiI4DRTOTiZT5XiMbz3EMKGHWrlqwOeBoEkl+JU1ANQMUvmpWIsNQ2SfDRCIFiTfhMEr6BL3TdAMLXUtU073d1fLoYMIa3BiLhXrmAed5orQviz36Qqh1fXBrLwwwpeFEyEolNMYo+RVtnvcUJi2PHt45zL+tgiSrSeNviWYgo/yySzWwkZZiERP5ySDoq5JXiUKBc7XSbQfXZdhkjvH5bhEuXsGBTnLTjDGvtViWGIaIW4qK6GeRG9jHo0EEuqvD98eDJkiLlMLjM1m+qwmHCQAqbn5dSb9M1vmNorhyleNJC/cCkVdR28UjGCPs53gWAPlxrS9ciHw9DdufIUV1oKaU0xdwoutWJzvuBEl0GsN0UFj8HjlJdiMExaPCTiV0U3RDZZgkhxBDmR5U1H7oeC4o0wzPxzdbIZiIF7S2iGjG+peJCo3MYEk9hiDIZgDUfYluZ1avQqkYUKgyxgKKSr0duhKMPcUMVAM4OMG04c5HkYRAkwxDfFynmFZd3SzTYHWGwphpYqbB2BNceCfnRXwzozRGqjAmy0jGihHmBikXDI327uYlUL5R9/CdIa0L/OGX/0D/rM4nKQbZ996g7VZAmy9NlM9O6OQXoqDjTYQn8zKkOWz0jEgcxdowOiRD4a+pZU5fgsk+6eH5QrrJ4POKF4gVSwlPEYc5jyXvC58ze5w/OzbiLdPT2G/C23G92VGoRMI0O5iddoKqoz5QNesqL6mkebMaafRhrklqrkcjmI+f/sZv4FQzzmnCSkG8Q/gsV9imfd+BqkpZAl4KdKwLx8aEYXIc4aWeOhzz4SlSHP2KR13NMzR2IMXgzprFjGIh7OuALuYr9TTgUylPY6/1Y6ewGn7t+VSjkVtg4TkOmx3hX8V+mcROgojhySEFwKB84UH0UNF3xCQT5Ymk9X4xwN/st8SmFDaXkvjUff2x12JLKfdnd3M+FpncOD07BhLJlnuwelTgk+mDo5i1NdYK0v4YyP/mQVVFSGvAWclC3NU5tjjvAr7ESXdXYdfqq3peuG8csPM9M9Oz3D3uW4GvvGV2FWAwzX2KOIuXeQsvWwqrBiLom9amP8MpEyRlscN14joy/EkiHRyTwPiPgo4voMk+tSAxIaq/YY0887YRg6H80EO4giQJcYQ/o5DsNgrcw61WSr/Vhk7oDh6OA7lOjLc0ItHbBHEbU0YAhJOyQ0TzP9DE+XkEhl2ghA2DVkyE80oqcJFo6+RoaN6MkF+98E1wOXb77/7+LLhw9Hbz+vuESKEoZR2CxaVOPEwyzvlbzGD25HPkGSfA9mPwFF4u78yHv5mXyhkC/kP0ccLBvEyLPi4gkY7lifm5OsE94ueHmgBv/O5PP5IxIpk4Iidho7ihZu0Iyctd2TYevCKwyS92OHGFzsbPf6CwsL1beFwszbsXPj4LCkzzJv1qmZiph5B57mtRfLDnXi/Od5PwZJ3JbnkPgLNAhfW4nzzx8z+XZEmyYSLsyy6iykRq2eQl8qM18a+QTh7FZAvQrroKu4HTgmQbxEbNDs6ORHIb8TcTWgywN+m2DWFrUCDhgOLD9OPMSbl5B3R2hEX8ATEjcuRQeE1/yc/0oMvTCTfx9xySox2D6iFSlOF4OXhzynmYt8nnxqY3wDGwJ3+O19ePcBw7i5wmQEzF/y1ReEJLe+gA58IeR9vvDd5fuExzPso6NRk2xhVtTEO2DYQ/3244qCXH7PF2bAJX4ZLGBOi+mJDknKbe8FoeHkB1WaNBtvIUjM5L9OS2RrJv8t4uEM0qa4hpc9iN5NDGoLz/I8Ne4uA91RBgV2rjOF7xfbaJOgf45zS41BDNfV2Rqg/s4XfD/IfhuNEbhGLmmmNWvoLiI3MYKGN1SWmkx3YjLEkXjyK0RtPF9Quh8XjQX3rioaZJhc+Ya6OTMDcvcupjHAJWfyF5E9cQOXvFAepKJvN8myspWs4c76OmYNMRiyuyVJl28xNZlBmhi+v38dNC6b09OuyzJPA4TXSi6s/Pf5CF+dwcsBxvu1iVfCIf8VZprR3Iyhux+sqwoo+mQm6NP0Vd/36AKJvUodI+LlRYFzxJNHHsDkx4/vR28RR99/FNhT+GJhhunnxXsuacM48hpjD8GPYxhVXMZHVxjDyH2o0NUYEq6upG1p/K76G9BxIz5pfoM0bIYznAmpDlEoDJ8pzHg/dt5hnoC2Si7lzxEvKlRadUvzrDlepsdZNcS2ixCcXIGeJuMucsZBtY4cWytvMZUeEgpZMdGG8gVBXlxC/FSCvRTkcssgTiQ7NMgqRStscDOPMz4Met7vfA98zc2FXXEAJC++FwJb46SGv2BIgcD3+fJeWzUILsZo4rJor+7osdrBCFYhQlayaWm+JcdvRg2Bkd5pNi6OfuS5w2QmGZjl9y+fq/yeLfe4hDquE1q0UAQrXKnjbTBhewt1soD3q7Dm7y9DHbeu4wVPNnHFPfgYwJe3m5+/NXrNFtvL5EBOELkrcwWHOGQAbtS35vki5ZhT/CxbcknIJu4thBIqTlt4FIRFD0nhN6TDQAEBg92Ljt3/ilW5emxPxhftkBV2/eWkwZQ05h6hcAbcZDvTwlVHLwYYUckCsNP88CYTsbdEB419XGtiQdrnPtGGg4jApeZND7cLU142xRbhcCc6bmP2cKnCBPdKeASAooMENdm3jlpsYeJ91u3xe5ZAxPA8nLFtOvGSt8cDBktCLnHRHg7V+JP32XPBhIhF7QqFkOH7NSdSd+/xAZWYLjXY7d6sYeVzr62IuPYSCOrkJ1v87Nejj/MfFdg+2FTZzRe9hUCv7nlXqbSNSxyhmhlQ9KeetoJfNklH9EFAjF6d3avH8voSv9WPee9F3vy2Fwbmpx7eimt9mpU+z6StOoYIIr2bB7PBlbMboYpO3Xu7LF9Ci75qR8XbVFmW9tN5lK14kYCBnbxrW5iEgGeYG1YEE2wnYcugdUxCqj7eccS3vI2t1nNRBP3pb1qUbc+z6PrwLhUT3U4qWPwFeVWT3wsR6kW62UuSaCv5HpSf21/L4zZSvOEkrV8Op0CT3S/L5DdokXSFuOsYNSA2Whb1aoNqr5l8MjR71fX5PMVrzLoy/o4jBSmIMukNwQKKBvZ3+4sqpBF4Qy/cOA7OR3sisMOxAI/Hpuw2mcFkSnmADetptEWMGpBLrNRVvqE62Cb/dMA9TgG/zQVMvIN0+0F2yF5tzsM74x3J/HacT8wQO/eWTK2NtdHhVvaB9qpnww2WmBKS5uqiByo6cgPkR4fG7kBM5cW1BYdcNY3M9IPddtAO779K2A5ZkuyttT/kLfWpQL2Pi+2tHo7tRsY1mQe9LUaGi9EI7rUKh3Ld6SeEa7DhokGGI57sQ9+K30wnYq02e2Q8ym34zXR67Ka5p8HUo/2ZAfxLFM8uSLwV1iP+qQj2Zzmyz8VSCf7oyaPRC0lm0/gncWxbeTrgn+LJJBLpp7slnWmHf/3nSZDOZLL2n/rnaAQEBAQEBAQEBAQEBAQEBAQEBAQEBAQEBAQEBAQEBAQEBAQEBAQEBAQEBAQEBP738H/540Cr0ckCUgAAAABJRU5ErkJggg==;" vertex="1" parent="1">
          <mxGeometry x="10" y="-230" width="190" height="190" as="geometry" />
        </mxCell>
        <mxCell id="juRgAYWE1Qn_RtXxcc75-66" value="" style="endArrow=classic;html=1;rounded=0;strokeWidth=13;exitX=1;exitY=0.5;exitDx=0;exitDy=0;" edge="1" parent="1" source="juRgAYWE1Qn_RtXxcc75-1">
          <mxGeometry width="50" height="50" relative="1" as="geometry">
            <mxPoint x="1050" y="680" as="sourcePoint" />
            <mxPoint x="1120" y="165" as="targetPoint" />
          </mxGeometry>
        </mxCell>
        <mxCell id="juRgAYWE1Qn_RtXxcc75-67" value="" style="endArrow=classic;html=1;rounded=0;strokeWidth=13;entryX=1;entryY=0.5;entryDx=0;entryDy=0;" edge="1" parent="1" source="juRgAYWE1Qn_RtXxcc75-7" target="juRgAYWE1Qn_RtXxcc75-54">
          <mxGeometry width="50" height="50" relative="1" as="geometry">
            <mxPoint x="970" y="584.28" as="sourcePoint" />
            <mxPoint x="1130" y="584.28" as="targetPoint" />
          </mxGeometry>
        </mxCell>
        <mxCell id="juRgAYWE1Qn_RtXxcc75-68" value="" style="endArrow=classic;html=1;rounded=0;strokeWidth=13;exitX=0.906;exitY=0.991;exitDx=0;exitDy=0;entryX=0.906;entryY=0.008;entryDx=0;entryDy=0;entryPerimeter=0;exitPerimeter=0;" edge="1" parent="1" source="juRgAYWE1Qn_RtXxcc75-36" target="juRgAYWE1Qn_RtXxcc75-7">
          <mxGeometry width="50" height="50" relative="1" as="geometry">
            <mxPoint x="1700" y="400" as="sourcePoint" />
            <mxPoint x="1860" y="400" as="targetPoint" />
          </mxGeometry>
        </mxCell>
        <mxCell id="juRgAYWE1Qn_RtXxcc75-69" value="" style="endArrow=classic;html=1;rounded=0;strokeWidth=13;exitX=0.906;exitY=0.991;exitDx=0;exitDy=0;entryX=0.906;entryY=0.008;entryDx=0;entryDy=0;entryPerimeter=0;exitPerimeter=0;" edge="1" parent="1">
          <mxGeometry width="50" height="50" relative="1" as="geometry">
            <mxPoint x="230" y="790" as="sourcePoint" />
            <mxPoint x="230" y="942" as="targetPoint" />
          </mxGeometry>
        </mxCell>
        <mxCell id="juRgAYWE1Qn_RtXxcc75-72" value="" style="endArrow=classic;html=1;rounded=0;strokeWidth=6;exitX=1;exitY=0.5;exitDx=0;exitDy=0;" edge="1" parent="1" target="juRgAYWE1Qn_RtXxcc75-3">
          <mxGeometry width="50" height="50" relative="1" as="geometry">
            <mxPoint x="360" y="181.75" as="sourcePoint" />
            <mxPoint x="470" y="190" as="targetPoint" />
          </mxGeometry>
        </mxCell>
        <mxCell id="juRgAYWE1Qn_RtXxcc75-73" value="" style="endArrow=classic;html=1;rounded=0;strokeWidth=6;exitX=1;exitY=0.5;exitDx=0;exitDy=0;" edge="1" parent="1">
          <mxGeometry width="50" height="50" relative="1" as="geometry">
            <mxPoint x="640" y="177.88" as="sourcePoint" />
            <mxPoint x="720" y="180.13" as="targetPoint" />
          </mxGeometry>
        </mxCell>
        <mxCell id="juRgAYWE1Qn_RtXxcc75-75" value="" style="endArrow=classic;html=1;rounded=0;strokeWidth=6;exitX=-0.013;exitY=0.456;exitDx=0;exitDy=0;exitPerimeter=0;entryX=0.973;entryY=0.415;entryDx=0;entryDy=0;entryPerimeter=0;" edge="1" parent="1" source="juRgAYWE1Qn_RtXxcc75-53" target="juRgAYWE1Qn_RtXxcc75-52">
          <mxGeometry width="50" height="50" relative="1" as="geometry">
            <mxPoint x="1430" y="607.65" as="sourcePoint" />
            <mxPoint x="1510" y="609.9" as="targetPoint" />
          </mxGeometry>
        </mxCell>
        <mxCell id="juRgAYWE1Qn_RtXxcc75-77" value="" style="rounded=0;whiteSpace=wrap;html=1;" vertex="1" parent="1">
          <mxGeometry x="1390" y="70" width="440" height="220" as="geometry" />
        </mxCell>
        <mxCell id="juRgAYWE1Qn_RtXxcc75-39" value="Table" style="shape=table;startSize=30;container=1;collapsible=0;childLayout=tableLayout;strokeColor=default;fontSize=16;" vertex="1" parent="1">
          <mxGeometry x="1446" y="104" width="180" height="150" as="geometry" />
        </mxCell>
        <mxCell id="juRgAYWE1Qn_RtXxcc75-40" value="" style="shape=tableRow;horizontal=0;startSize=0;swimlaneHead=0;swimlaneBody=0;strokeColor=inherit;top=0;left=0;bottom=0;right=0;collapsible=0;dropTarget=0;fillColor=none;points=[[0,0.5],[1,0.5]];portConstraint=eastwest;fontSize=16;" vertex="1" parent="juRgAYWE1Qn_RtXxcc75-39">
          <mxGeometry y="30" width="180" height="40" as="geometry" />
        </mxCell>
        <mxCell id="juRgAYWE1Qn_RtXxcc75-41" value="" style="shape=partialRectangle;html=1;whiteSpace=wrap;connectable=0;strokeColor=inherit;overflow=hidden;fillColor=none;top=0;left=0;bottom=0;right=0;pointerEvents=1;fontSize=16;" vertex="1" parent="juRgAYWE1Qn_RtXxcc75-40">
          <mxGeometry width="60" height="40" as="geometry">
            <mxRectangle width="60" height="40" as="alternateBounds" />
          </mxGeometry>
        </mxCell>
        <mxCell id="juRgAYWE1Qn_RtXxcc75-42" value="" style="shape=partialRectangle;html=1;whiteSpace=wrap;connectable=0;strokeColor=inherit;overflow=hidden;fillColor=none;top=0;left=0;bottom=0;right=0;pointerEvents=1;fontSize=16;" vertex="1" parent="juRgAYWE1Qn_RtXxcc75-40">
          <mxGeometry x="60" width="60" height="40" as="geometry">
            <mxRectangle width="60" height="40" as="alternateBounds" />
          </mxGeometry>
        </mxCell>
        <mxCell id="juRgAYWE1Qn_RtXxcc75-43" value="" style="shape=partialRectangle;html=1;whiteSpace=wrap;connectable=0;strokeColor=inherit;overflow=hidden;fillColor=none;top=0;left=0;bottom=0;right=0;pointerEvents=1;fontSize=16;" vertex="1" parent="juRgAYWE1Qn_RtXxcc75-40">
          <mxGeometry x="120" width="60" height="40" as="geometry">
            <mxRectangle width="60" height="40" as="alternateBounds" />
          </mxGeometry>
        </mxCell>
        <mxCell id="juRgAYWE1Qn_RtXxcc75-44" value="" style="shape=tableRow;horizontal=0;startSize=0;swimlaneHead=0;swimlaneBody=0;strokeColor=inherit;top=0;left=0;bottom=0;right=0;collapsible=0;dropTarget=0;fillColor=none;points=[[0,0.5],[1,0.5]];portConstraint=eastwest;fontSize=16;" vertex="1" parent="juRgAYWE1Qn_RtXxcc75-39">
          <mxGeometry y="70" width="180" height="40" as="geometry" />
        </mxCell>
        <mxCell id="juRgAYWE1Qn_RtXxcc75-45" value="" style="shape=partialRectangle;html=1;whiteSpace=wrap;connectable=0;strokeColor=inherit;overflow=hidden;fillColor=none;top=0;left=0;bottom=0;right=0;pointerEvents=1;fontSize=16;" vertex="1" parent="juRgAYWE1Qn_RtXxcc75-44">
          <mxGeometry width="60" height="40" as="geometry">
            <mxRectangle width="60" height="40" as="alternateBounds" />
          </mxGeometry>
        </mxCell>
        <mxCell id="juRgAYWE1Qn_RtXxcc75-46" value="" style="shape=partialRectangle;html=1;whiteSpace=wrap;connectable=0;strokeColor=inherit;overflow=hidden;fillColor=none;top=0;left=0;bottom=0;right=0;pointerEvents=1;fontSize=16;" vertex="1" parent="juRgAYWE1Qn_RtXxcc75-44">
          <mxGeometry x="60" width="60" height="40" as="geometry">
            <mxRectangle width="60" height="40" as="alternateBounds" />
          </mxGeometry>
        </mxCell>
        <mxCell id="juRgAYWE1Qn_RtXxcc75-47" value="" style="shape=partialRectangle;html=1;whiteSpace=wrap;connectable=0;strokeColor=inherit;overflow=hidden;fillColor=none;top=0;left=0;bottom=0;right=0;pointerEvents=1;fontSize=16;" vertex="1" parent="juRgAYWE1Qn_RtXxcc75-44">
          <mxGeometry x="120" width="60" height="40" as="geometry">
            <mxRectangle width="60" height="40" as="alternateBounds" />
          </mxGeometry>
        </mxCell>
        <mxCell id="juRgAYWE1Qn_RtXxcc75-48" value="" style="shape=tableRow;horizontal=0;startSize=0;swimlaneHead=0;swimlaneBody=0;strokeColor=inherit;top=0;left=0;bottom=0;right=0;collapsible=0;dropTarget=0;fillColor=none;points=[[0,0.5],[1,0.5]];portConstraint=eastwest;fontSize=16;" vertex="1" parent="juRgAYWE1Qn_RtXxcc75-39">
          <mxGeometry y="110" width="180" height="40" as="geometry" />
        </mxCell>
        <mxCell id="juRgAYWE1Qn_RtXxcc75-49" value="" style="shape=partialRectangle;html=1;whiteSpace=wrap;connectable=0;strokeColor=inherit;overflow=hidden;fillColor=none;top=0;left=0;bottom=0;right=0;pointerEvents=1;fontSize=16;" vertex="1" parent="juRgAYWE1Qn_RtXxcc75-48">
          <mxGeometry width="60" height="40" as="geometry">
            <mxRectangle width="60" height="40" as="alternateBounds" />
          </mxGeometry>
        </mxCell>
        <mxCell id="juRgAYWE1Qn_RtXxcc75-50" value="" style="shape=partialRectangle;html=1;whiteSpace=wrap;connectable=0;strokeColor=inherit;overflow=hidden;fillColor=none;top=0;left=0;bottom=0;right=0;pointerEvents=1;fontSize=16;" vertex="1" parent="juRgAYWE1Qn_RtXxcc75-48">
          <mxGeometry x="60" width="60" height="40" as="geometry">
            <mxRectangle width="60" height="40" as="alternateBounds" />
          </mxGeometry>
        </mxCell>
        <mxCell id="juRgAYWE1Qn_RtXxcc75-51" value="" style="shape=partialRectangle;html=1;whiteSpace=wrap;connectable=0;strokeColor=inherit;overflow=hidden;fillColor=none;top=0;left=0;bottom=0;right=0;pointerEvents=1;fontSize=16;" vertex="1" parent="juRgAYWE1Qn_RtXxcc75-48">
          <mxGeometry x="120" width="60" height="40" as="geometry">
            <mxRectangle width="60" height="40" as="alternateBounds" />
          </mxGeometry>
        </mxCell>
        <mxCell id="juRgAYWE1Qn_RtXxcc75-38" value="datacatalog" style="shape=image;imageAspect=0;aspect=fixed;verticalLabelPosition=bottom;verticalAlign=top;image=https://i4b.pl/wp-content/uploads/2024/03/image-1.png;fontSize=18;strokeWidth=30;" vertex="1" parent="1">
          <mxGeometry x="1743" y="74.5" width="75.1" height="80" as="geometry" />
        </mxCell>
        <mxCell id="juRgAYWE1Qn_RtXxcc75-80" value="" style="rounded=0;whiteSpace=wrap;html=1;" vertex="1" parent="1">
          <mxGeometry x="300" y="500" width="630" height="260" as="geometry" />
        </mxCell>
        <mxCell id="juRgAYWE1Qn_RtXxcc75-58" value="" style="shape=image;imageAspect=0;aspect=fixed;verticalLabelPosition=bottom;verticalAlign=top;image=https://encrypted-tbn0.gstatic.com/images?q=tbn:ANd9GcQs6rgvTTCxPIfIVdS_tOotuWuPNBZELBo3mQ&amp;s;" vertex="1" parent="1">
          <mxGeometry x="310" y="520.6099999999999" width="196" height="196" as="geometry" />
        </mxCell>
        <mxCell id="juRgAYWE1Qn_RtXxcc75-78" value="" style="endArrow=classic;html=1;rounded=0;strokeWidth=6;exitX=-0.013;exitY=0.456;exitDx=0;exitDy=0;exitPerimeter=0;entryX=0.973;entryY=0.415;entryDx=0;entryDy=0;entryPerimeter=0;" edge="1" parent="1">
          <mxGeometry width="50" height="50" relative="1" as="geometry">
            <mxPoint x="658" y="623" as="sourcePoint" />
            <mxPoint x="502" y="620" as="targetPoint" />
          </mxGeometry>
        </mxCell>
        <mxCell id="juRgAYWE1Qn_RtXxcc75-57" value="" style="shape=image;imageAspect=0;aspect=fixed;verticalLabelPosition=bottom;verticalAlign=top;image=data:image/png,iVBORw0KGgoAAAANSUhEUgAAARcAAAC1CAMAAABCrku3AAABJlBMVEX/////mQAAAABwQcx3RtN+TNttP8mFUeJpPMV1RdGCT996SddnOsOHU+RrPcd2RtL/kQBhNr3/lQCPWOzt5vv/kABBQUHo6OiRWu7v7+/n5+f/48nMvutdM7gSEhJ7e3vUw/X8+v5wcHBUVFRlZWXb29vLy8v/yJOhoaHCwsL/+vb/8+bXxfl1QNXd0/Oqltm0neWsrKyOjo728vzCrewkJCRXV1eFhYVJSUk1NTX/69d+R9+MUe5vNtZ6Qt2ukeaaduHm3fhfKcdrN81XJ7odHR21tbX/u3f/r1z/27f/0qL/nCn/pkFpKtWWWfjAp+6MXeOnhOmXceGzluqJYtmihN+EWtbJt+6be92PbNWDXtF6TtBSHbpJBbleLcD/smD/pEX/wIQqGfCNAAAKeElEQVR4nO2cCVviSBqAywDaagvpNMhwLBAM94ZFDgFZESajCKEXT9RmZtD//yf2qwpHyEEfajMW9T7dpjk6T+r1O6pIKUIMBoPBYDAYDAaDwWAwGAwGg8FgMBgMBoPxz8Z7H47FYvjvt/k3/LGgtOoxvAWxL7KBZrNhw38t+Z931WN4C8InHs/uFNeEnSlbW3uLfJ7y2xxKvTgBkxnXTIyGyQuY+Uyzlxjx8k0xFl5mYij14nmpGCq94Prys2J+08RQ6mXbIMboZWfRy97nxeL7mVYvnpeJodbL9va25sVWzNYyMTR72f6xErMghmovTptMshWjr74UezGK0c18mxiTmL018WIrpjGIhfOxyyVi6Pay7XRaimmQ1fJVw74pUe7FRkxD9F7F0F3D1K1nEUOrF8eiGJOX/JeCzos5Yqj14rAOGPxRjLzbEEv3beLFrsTQ68VSjDyIxWJlVxOPWrxq2Hdrir1YiHFekoJ73bwq3BRudlyW05g92r3MxMy6tTwU23dh1MKfazaby+Z3lHr53WEpxjkUw18G4MXlap6cnDRtxOzR7sUoBuKlFGsTL7jQDBouOzHr4WUqxjnS6ossX4twFC8XU2l94sUoRm7dnJ5CeZFbKH/TFocNl8taDK1eNs1i8G2k4fXDaaFQLoOX8pcYgnjBt5AsMolaLyYxyvDuvu0tieQNOF4GXvGy5c2XW5cWYj5T68UgxnEHIxVL7XzsvlweyNe40JR2rrAn75VZDMVeNvVesIh84fp2OMJLAXl397RcLp/KO9dXAy9qX5qaEs1e9BEjt0piuPBwO5rUXxmmLyey6/L6bpAHLy6jGKq96CNGvkc4j7z5MM6jwQDCJZaf1JvThqkpUevFbRDjGHlR+L5dEgHyHvyPUikP6+p80zy9o9eL25BJyg2+rTRsnd7cFCBaBoXC6dXtpevSW2o1Fu8pbVHsxe02inF48uhOcS5ui9ltDtB9w3yLYItmLwYxyp3YHm17PB7nfHMMtKnSULbYAkKrlw9TL3MxDkcYFZTFWwQn92hwYnVTiVovFmIUWE2PZL0Y+QF69K7LQgy9Xj4YMwnEQHQoCzeVIIJky9uQlHtZFOMYekuPsmcmRjlFeYsNeJR7MUfMtlJAYXl278Qp44+orMVQ7MVNxCyUGIfsRQ+KZ7LTQYYZjWyz1YFWLx8/WonZxpkja/cIPDJkVcvayw61Xj5oYkxNCSZ3pxAwOGLkMirLdrupaPXy8aO1GKUFkzscMR75ViztTr2YxOxR7eWDeRqjQGv+nXx+h5v27L61UQzNXizFKMNSCQeMfIfyHvttZjTnkY2YMroHL3gVKduLoTpe5k1JL2bk9d46lAfcmKz3Jbro97IoZlphYNILDbuwbLM87V4sxICXloK9KIYdvnox1HuZ1ZhZJkFHaofDXuzFejcVhlovnxbE6EuM8kDGnH+Ul+x93qLTy59zLRZiHF8fHm4VedlOVmq9WIlxTzLp66PieBw6dDf0TfM7er3Yi3HnReURlZVle58p9vJJ72XelBRFmXjRMsl6iy/NXj4tBswkYh4fvxIv4a+zVHKaU4lqL1YR81gSRYS9IFH0bmtiPGYx6+Jl9qHD0It/HF8ZhUvQqpXJJhBziaHbizFiII3+/tpGYYeijPIoP5ptGjKK2V0nL6TEbCogJq9pURx2Yqj3Yi4xm8qojdpeFPYos11D5uK7Q7sXUyaBmGEe3uJx67ZTmcTQGi//WiLGrTjC9w63bg+IeRpDa7zovFhEDP6juz9rIWYdvBiKr1u/VDJnkpNuL98Ss2khRvc5Fb1evkfMpm0mUezFusQsjZj5D+TQ7OUlYlw0e/l5Mc618WLzaYydGLq92AbMEjHa742h3MsSMeZtZnoxtHtZTCXNzYfZ2tq4nWouhlIvf/0x528Tij2zX49IpZf2f+woYLSvy6Hy92MyGAwGg8FgMBiMtSPgJ1+D2g+Q+wO6J4N+v6h/q98/fTnwCy9wNfgrXBIOae4QPzrk6njIgSM4BKMcx0nJ2TsTRXhcSePXo/vUi8lwkSockhz+iuIcl4GD/0xCqMZFIhHubComUeHgCY6LB9bCS/wgvg9JE6jX4EHgTKoUEZaVRudcVRTRYSSuKQjuc/Eg2JFwYNHvxV8pnpMQiUfATjJyfiDBkItcAlXrpMZE98kBMqxIjoHIgeYliJ8PJPBzwURiNVf/dmQiGRSJIjxuSJh0JVg8g6g4gHFDxdGX1yNuUoLPk8RLoCaR/5XAtYnjjigzUwUNEodwqKSRGK9BCp1DOsUhCGCw8eR0uIFKTfe/sJcDeA+kWQLcVJPn+zX/r7/4t8O/D6MjieSvR1GwUgUdcZQgzSlTgziIVCedmcMaAsUqEFjwEqjhcAtCRaKIDFdMJg9JIkm1QAbnklRHhxUSJv5MtBbhoiR/NC9JDhPUewkm4RSZTLISX+EwXp0oGSi3H8RVIljkSM0NVqftJhDI7Ee0Rq31q3SxeGTwksHtHBr40coG8QacVaSjI6kGNQWSJ1PDY4MCcwTxE6xp/SdJuhU2OCk1h5zf4CWdwNBUX5JcOgAkuChuwNUIVhGsSxUoL4EaDiJcfLR4OeckbeTVabzgfgTdK6FVluLhaobwJlS1QoIOIpA4EqelDMx58bPQfdOZTJGTJjlVJY8PK9w+qbsoXk+gRB1OEMdT4nOOIi/+2oE2KSGrozRXJxFS5Or4IEqk9JzNOnVcq0USPBGH5VOGq0X369CnE5VKNM7FKZoBJyStdqCglMaPisRS4mjScpOSJBV1w03EJSlONKWj8HTm6CCTxMnljx4cUNWlGQwGg8FgrBHZbHbVl/API5vrPXcugHEndbzqi3kBodBrni3XvVB5n4/HwOH53UZNtu97zr3a2bpPPl4gbGAE4fVO/asJqT419UqXn/L5VLUPKTS+UImad+wFi/E99V4l4EPd0PFxLpfLZnO5ripsCOo79oJyF4LgU3uvPYSeb0O4eLf1BZPrwBD4p1czkyMn6vo2+OdXOuOqSOGg96md0Mu/v9lQR1Vxj0vxG77eyy9ttYT6PFRJHz9+WdDA5GWMOzT4yI6FDfU9T2A0ch0eNxBeUDvdn1WT63ZUnofujKctuSdBeHrNK1wV3T4xI/C+/rh7/KMJlT3ujvs8PgPf75LTbVCQRoTcM3yzyXQMomac+oFakw2lxqqgBRzf0ZInxb/vLq0n1JlMVHHU8Go/1Q3lli4AYaIS6vb6KlQmQZvgXnQnr8BzdIQLJtt9msQMGSTPqxedTq97nDPpgZnbcQivEFVemMnUzYJCPP9ES7hgst0LLSHmbmDgGyosj59TU54744s+vCaQ12Zv7euaWcfHv/9mtAA245ub0YZM/OiZrQ2necf3ezoRx31fanVDeCNgaqa1lu9F4NXxYnfv+VLveglgR67XUYXvUkOKUM+YMyF6aq4BPHWFlTYvLJED600fdPQfnuy8d3Kh3vhJ5X28IJgKDm7kT+PUT0+O3zkwQemlOv0N3rfARn+c6sHkZtWXt2LIbGUOns+s+pIYDAaDwWAwGAwGg8FgMBgMBoPBYKwF/we0aCh/QlgqigAAAABJRU5ErkJggg==;direction=east;" vertex="1" parent="1">
          <mxGeometry x="580" y="570" width="238.59" height="154.78" as="geometry" />
        </mxCell>
        <mxCell id="juRgAYWE1Qn_RtXxcc75-56" value="" style="shape=image;imageAspect=0;aspect=fixed;verticalLabelPosition=bottom;verticalAlign=top;image=data:image/png,iVBORw0KGgoAAAANSUhEUgAAARcAAAC1CAMAAABCrku3AAABJlBMVEX/////mQAAAABwQcx3RtN+TNttP8mFUeJpPMV1RdGCT996SddnOsOHU+RrPcd2RtL/kQBhNr3/lQCPWOzt5vv/kABBQUHo6OiRWu7v7+/n5+f/48nMvutdM7gSEhJ7e3vUw/X8+v5wcHBUVFRlZWXb29vLy8v/yJOhoaHCwsL/+vb/8+bXxfl1QNXd0/Oqltm0neWsrKyOjo728vzCrewkJCRXV1eFhYVJSUk1NTX/69d+R9+MUe5vNtZ6Qt2ukeaaduHm3fhfKcdrN81XJ7odHR21tbX/u3f/r1z/27f/0qL/nCn/pkFpKtWWWfjAp+6MXeOnhOmXceGzluqJYtmihN+EWtbJt+6be92PbNWDXtF6TtBSHbpJBbleLcD/smD/pEX/wIQqGfCNAAAKeElEQVR4nO2cCVviSBqAywDaagvpNMhwLBAM94ZFDgFZESajCKEXT9RmZtD//yf2qwpHyEEfajMW9T7dpjk6T+r1O6pIKUIMBoPBYDAYDAaDwWAwGAwGg8FgMBgMBoPxz8Z7H47FYvjvt/k3/LGgtOoxvAWxL7KBZrNhw38t+Z931WN4C8InHs/uFNeEnSlbW3uLfJ7y2xxKvTgBkxnXTIyGyQuY+Uyzlxjx8k0xFl5mYij14nmpGCq94Prys2J+08RQ6mXbIMboZWfRy97nxeL7mVYvnpeJodbL9va25sVWzNYyMTR72f6xErMghmovTptMshWjr74UezGK0c18mxiTmL018WIrpjGIhfOxyyVi6Pay7XRaimmQ1fJVw74pUe7FRkxD9F7F0F3D1K1nEUOrF8eiGJOX/JeCzos5Yqj14rAOGPxRjLzbEEv3beLFrsTQ68VSjDyIxWJlVxOPWrxq2Hdrir1YiHFekoJ73bwq3BRudlyW05g92r3MxMy6tTwU23dh1MKfazaby+Z3lHr53WEpxjkUw18G4MXlap6cnDRtxOzR7sUoBuKlFGsTL7jQDBouOzHr4WUqxjnS6ossX4twFC8XU2l94sUoRm7dnJ5CeZFbKH/TFocNl8taDK1eNs1i8G2k4fXDaaFQLoOX8pcYgnjBt5AsMolaLyYxyvDuvu0tieQNOF4GXvGy5c2XW5cWYj5T68UgxnEHIxVL7XzsvlweyNe40JR2rrAn75VZDMVeNvVesIh84fp2OMJLAXl397RcLp/KO9dXAy9qX5qaEs1e9BEjt0piuPBwO5rUXxmmLyey6/L6bpAHLy6jGKq96CNGvkc4j7z5MM6jwQDCJZaf1JvThqkpUevFbRDjGHlR+L5dEgHyHvyPUikP6+p80zy9o9eL25BJyg2+rTRsnd7cFCBaBoXC6dXtpevSW2o1Fu8pbVHsxe02inF48uhOcS5ui9ltDtB9w3yLYItmLwYxyp3YHm17PB7nfHMMtKnSULbYAkKrlw9TL3MxDkcYFZTFWwQn92hwYnVTiVovFmIUWE2PZL0Y+QF69K7LQgy9Xj4YMwnEQHQoCzeVIIJky9uQlHtZFOMYekuPsmcmRjlFeYsNeJR7MUfMtlJAYXl278Qp44+orMVQ7MVNxCyUGIfsRQ+KZ7LTQYYZjWyz1YFWLx8/WonZxpkja/cIPDJkVcvayw61Xj5oYkxNCSZ3pxAwOGLkMirLdrupaPXy8aO1GKUFkzscMR75ViztTr2YxOxR7eWDeRqjQGv+nXx+h5v27L61UQzNXizFKMNSCQeMfIfyHvttZjTnkY2YMroHL3gVKduLoTpe5k1JL2bk9d46lAfcmKz3Jbro97IoZlphYNILDbuwbLM87V4sxICXloK9KIYdvnox1HuZ1ZhZJkFHaofDXuzFejcVhlovnxbE6EuM8kDGnH+Ul+x93qLTy59zLRZiHF8fHm4VedlOVmq9WIlxTzLp66PieBw6dDf0TfM7er3Yi3HnReURlZVle58p9vJJ72XelBRFmXjRMsl6iy/NXj4tBswkYh4fvxIv4a+zVHKaU4lqL1YR81gSRYS9IFH0bmtiPGYx6+Jl9qHD0It/HF8ZhUvQqpXJJhBziaHbizFiII3+/tpGYYeijPIoP5ptGjKK2V0nL6TEbCogJq9pURx2Yqj3Yi4xm8qojdpeFPYos11D5uK7Q7sXUyaBmGEe3uJx67ZTmcTQGi//WiLGrTjC9w63bg+IeRpDa7zovFhEDP6juz9rIWYdvBiKr1u/VDJnkpNuL98Ss2khRvc5Fb1evkfMpm0mUezFusQsjZj5D+TQ7OUlYlw0e/l5Mc618WLzaYydGLq92AbMEjHa742h3MsSMeZtZnoxtHtZTCXNzYfZ2tq4nWouhlIvf/0x528Tij2zX49IpZf2f+woYLSvy6Hy92MyGAwGg8FgMBiMtSPgJ1+D2g+Q+wO6J4N+v6h/q98/fTnwCy9wNfgrXBIOae4QPzrk6njIgSM4BKMcx0nJ2TsTRXhcSePXo/vUi8lwkSockhz+iuIcl4GD/0xCqMZFIhHubComUeHgCY6LB9bCS/wgvg9JE6jX4EHgTKoUEZaVRudcVRTRYSSuKQjuc/Eg2JFwYNHvxV8pnpMQiUfATjJyfiDBkItcAlXrpMZE98kBMqxIjoHIgeYliJ8PJPBzwURiNVf/dmQiGRSJIjxuSJh0JVg8g6g4gHFDxdGX1yNuUoLPk8RLoCaR/5XAtYnjjigzUwUNEodwqKSRGK9BCp1DOsUhCGCw8eR0uIFKTfe/sJcDeA+kWQLcVJPn+zX/r7/4t8O/D6MjieSvR1GwUgUdcZQgzSlTgziIVCedmcMaAsUqEFjwEqjhcAtCRaKIDFdMJg9JIkm1QAbnklRHhxUSJv5MtBbhoiR/NC9JDhPUewkm4RSZTLISX+EwXp0oGSi3H8RVIljkSM0NVqftJhDI7Ee0Rq31q3SxeGTwksHtHBr40coG8QacVaSjI6kGNQWSJ1PDY4MCcwTxE6xp/SdJuhU2OCk1h5zf4CWdwNBUX5JcOgAkuChuwNUIVhGsSxUoL4EaDiJcfLR4OeckbeTVabzgfgTdK6FVluLhaobwJlS1QoIOIpA4EqelDMx58bPQfdOZTJGTJjlVJY8PK9w+qbsoXk+gRB1OEMdT4nOOIi/+2oE2KSGrozRXJxFS5Or4IEqk9JzNOnVcq0USPBGH5VOGq0X369CnE5VKNM7FKZoBJyStdqCglMaPisRS4mjScpOSJBV1w03EJSlONKWj8HTm6CCTxMnljx4cUNWlGQwGg8FgrBHZbHbVl/API5vrPXcugHEndbzqi3kBodBrni3XvVB5n4/HwOH53UZNtu97zr3a2bpPPl4gbGAE4fVO/asJqT419UqXn/L5VLUPKTS+UImad+wFi/E99V4l4EPd0PFxLpfLZnO5ripsCOo79oJyF4LgU3uvPYSeb0O4eLf1BZPrwBD4p1czkyMn6vo2+OdXOuOqSOGg96md0Mu/v9lQR1Vxj0vxG77eyy9ttYT6PFRJHz9+WdDA5GWMOzT4yI6FDfU9T2A0ch0eNxBeUDvdn1WT63ZUnofujKctuSdBeHrNK1wV3T4xI/C+/rh7/KMJlT3ujvs8PgPf75LTbVCQRoTcM3yzyXQMomac+oFakw2lxqqgBRzf0ZInxb/vLq0n1JlMVHHU8Go/1Q3lli4AYaIS6vb6KlQmQZvgXnQnr8BzdIQLJtt9msQMGSTPqxedTq97nDPpgZnbcQivEFVemMnUzYJCPP9ES7hgst0LLSHmbmDgGyosj59TU54744s+vCaQ12Zv7euaWcfHv/9mtAA245ub0YZM/OiZrQ2necf3ezoRx31fanVDeCNgaqa1lu9F4NXxYnfv+VLveglgR67XUYXvUkOKUM+YMyF6aq4BPHWFlTYvLJED600fdPQfnuy8d3Kh3vhJ5X28IJgKDm7kT+PUT0+O3zkwQemlOv0N3rfARn+c6sHkZtWXt2LIbGUOns+s+pIYDAaDwWAwGAwGg8FgMBgMBoPBYKwF/we0aCh/QlgqigAAAABJRU5ErkJggg==;" vertex="1" parent="1">
          <mxGeometry x="798" y="505" width="128.28" height="83.22" as="geometry" />
        </mxCell>
        <mxCell id="juRgAYWE1Qn_RtXxcc75-81" value="" style="endArrow=classic;html=1;rounded=0;strokeWidth=6;entryX=0.646;entryY=0.471;entryDx=0;entryDy=0;entryPerimeter=0;" edge="1" parent="1" source="juRgAYWE1Qn_RtXxcc75-61" target="juRgAYWE1Qn_RtXxcc75-59">
          <mxGeometry width="50" height="50" relative="1" as="geometry">
            <mxPoint x="500" y="1065.87" as="sourcePoint" />
            <mxPoint x="580" y="1068.12" as="targetPoint" />
          </mxGeometry>
        </mxCell>
        <mxCell id="juRgAYWE1Qn_RtXxcc75-82" value="&lt;font style=&quot;font-size: 76px;&quot;&gt;SERVERLESS DATALAKE PILELINE&lt;/font&gt;" style="rounded=0;whiteSpace=wrap;html=1;fillColor=#a20025;strokeColor=#6F0000;fontColor=#ffffff;" vertex="1" parent="1">
          <mxGeometry x="-17" y="-527" width="2160" height="260" as="geometry" />
        </mxCell>
      </root>
    </mxGraphModel>
  </diagram>
</mxfile>
